<mxfile host="app.diagrams.net" agent="Mozilla/5.0 (X11; Ubuntu; Linux x86_64; rv:139.0) Gecko/20100101 Firefox/139.0" version="27.1.5">
  <diagram name="Page-1" id="8HpQ-8Nv3RYFxjtC_Wua">
    <mxGraphModel dx="2593" dy="1453" grid="1" gridSize="10" guides="1" tooltips="1" connect="1" arrows="1" fold="1" page="1" pageScale="1" pageWidth="1920" pageHeight="1200" math="0" shadow="0">
      <root>
        <mxCell id="0" />
        <mxCell id="1" parent="0" />
        <mxCell id="-IlWu7yrMwcjvubHEvKh-1" value="&lt;font style=&quot;font-size: 20px;&quot;&gt;&lt;span&gt;ClockSelect_0&lt;/span&gt;&lt;/font&gt;" style="rounded=1;whiteSpace=wrap;html=1;fontStyle=1;strokeWidth=3;" parent="1" vertex="1">
          <mxGeometry x="1175" y="250" width="160" height="80" as="geometry" />
        </mxCell>
        <mxCell id="-IlWu7yrMwcjvubHEvKh-2" value="&lt;font style=&quot;font-size: 20px;&quot;&gt;LogicControl_0&lt;/font&gt;" style="rounded=1;whiteSpace=wrap;html=1;strokeWidth=3;fontStyle=1" parent="1" vertex="1">
          <mxGeometry x="1135" y="440" width="165" height="180" as="geometry" />
        </mxCell>
        <mxCell id="-IlWu7yrMwcjvubHEvKh-3" value="&lt;font style=&quot;font-size: 20px;&quot;&gt;Comparator A_0&lt;/font&gt;" style="rounded=1;whiteSpace=wrap;html=1;strokeWidth=3;fontStyle=1" parent="1" vertex="1">
          <mxGeometry x="1460" y="400" width="170" height="60" as="geometry" />
        </mxCell>
        <mxCell id="-IlWu7yrMwcjvubHEvKh-4" value="&lt;font style=&quot;font-size: 20px;&quot;&gt;Comparator A_1&lt;/font&gt;" style="rounded=1;whiteSpace=wrap;html=1;strokeWidth=3;fontStyle=1" parent="1" vertex="1">
          <mxGeometry x="1700" y="400" width="170" height="60" as="geometry" />
        </mxCell>
        <mxCell id="-IlWu7yrMwcjvubHEvKh-5" value="&lt;font style=&quot;font-size: 20px;&quot;&gt;Comparator B_0&lt;/font&gt;" style="rounded=1;whiteSpace=wrap;html=1;strokeWidth=3;fontStyle=1" parent="1" vertex="1">
          <mxGeometry x="1460" y="600" width="170" height="60" as="geometry" />
        </mxCell>
        <mxCell id="-IlWu7yrMwcjvubHEvKh-6" value="&lt;font style=&quot;font-size: 20px;&quot;&gt;Comparator B_1&lt;/font&gt;" style="rounded=1;whiteSpace=wrap;html=1;strokeWidth=3;fontStyle=1" parent="1" vertex="1">
          <mxGeometry x="1700" y="590" width="170" height="60" as="geometry" />
        </mxCell>
        <mxCell id="-IlWu7yrMwcjvubHEvKh-7" value="TCORA_0" style="rounded=0;whiteSpace=wrap;html=1;strokeWidth=2;" parent="1" vertex="1">
          <mxGeometry x="1485" y="340" width="120" height="40" as="geometry" />
        </mxCell>
        <mxCell id="-IlWu7yrMwcjvubHEvKh-8" value="TCORA_1" style="rounded=0;whiteSpace=wrap;html=1;strokeWidth=2;" parent="1" vertex="1">
          <mxGeometry x="1725" y="340" width="120" height="40" as="geometry" />
        </mxCell>
        <mxCell id="-IlWu7yrMwcjvubHEvKh-9" value="TCNT_0" style="rounded=0;whiteSpace=wrap;html=1;strokeWidth=2;" parent="1" vertex="1">
          <mxGeometry x="1485" y="510" width="120" height="40" as="geometry" />
        </mxCell>
        <mxCell id="-IlWu7yrMwcjvubHEvKh-11" value="TCNT_1" style="rounded=0;whiteSpace=wrap;html=1;strokeWidth=2;" parent="1" vertex="1">
          <mxGeometry x="1725" y="510" width="120" height="40" as="geometry" />
        </mxCell>
        <mxCell id="-IlWu7yrMwcjvubHEvKh-12" value="TCORB_0" style="rounded=0;whiteSpace=wrap;html=1;strokeWidth=2;" parent="1" vertex="1">
          <mxGeometry x="1485" y="690" width="120" height="40" as="geometry" />
        </mxCell>
        <mxCell id="-IlWu7yrMwcjvubHEvKh-13" value="TCORB_1" style="rounded=0;whiteSpace=wrap;html=1;strokeWidth=2;" parent="1" vertex="1">
          <mxGeometry x="1725" y="690" width="120" height="40" as="geometry" />
        </mxCell>
        <mxCell id="-IlWu7yrMwcjvubHEvKh-14" value="" style="endArrow=classic;html=1;rounded=0;exitX=0.5;exitY=1;exitDx=0;exitDy=0;entryX=0.5;entryY=0;entryDx=0;entryDy=0;" parent="1" source="-IlWu7yrMwcjvubHEvKh-7" target="-IlWu7yrMwcjvubHEvKh-3" edge="1">
          <mxGeometry width="50" height="50" relative="1" as="geometry">
            <mxPoint x="1650" y="370" as="sourcePoint" />
            <mxPoint x="1700" y="320" as="targetPoint" />
          </mxGeometry>
        </mxCell>
        <mxCell id="-IlWu7yrMwcjvubHEvKh-15" value="" style="endArrow=classic;html=1;rounded=0;exitX=0.5;exitY=1;exitDx=0;exitDy=0;entryX=0.5;entryY=0;entryDx=0;entryDy=0;" parent="1" source="-IlWu7yrMwcjvubHEvKh-8" target="-IlWu7yrMwcjvubHEvKh-4" edge="1">
          <mxGeometry width="50" height="50" relative="1" as="geometry">
            <mxPoint x="1870" y="420" as="sourcePoint" />
            <mxPoint x="1920" y="370" as="targetPoint" />
          </mxGeometry>
        </mxCell>
        <mxCell id="-IlWu7yrMwcjvubHEvKh-16" value="" style="endArrow=classic;html=1;rounded=0;exitX=0.5;exitY=0;exitDx=0;exitDy=0;entryX=0.5;entryY=1;entryDx=0;entryDy=0;" parent="1" source="-IlWu7yrMwcjvubHEvKh-11" target="-IlWu7yrMwcjvubHEvKh-4" edge="1">
          <mxGeometry width="50" height="50" relative="1" as="geometry">
            <mxPoint x="1650" y="520" as="sourcePoint" />
            <mxPoint x="1700" y="470" as="targetPoint" />
          </mxGeometry>
        </mxCell>
        <mxCell id="-IlWu7yrMwcjvubHEvKh-18" value="" style="endArrow=classic;html=1;rounded=0;entryX=0.5;entryY=1;entryDx=0;entryDy=0;exitX=0.5;exitY=0;exitDx=0;exitDy=0;" parent="1" source="-IlWu7yrMwcjvubHEvKh-9" target="-IlWu7yrMwcjvubHEvKh-3" edge="1">
          <mxGeometry width="50" height="50" relative="1" as="geometry">
            <mxPoint x="1480" y="540" as="sourcePoint" />
            <mxPoint x="1530" y="490" as="targetPoint" />
          </mxGeometry>
        </mxCell>
        <mxCell id="-IlWu7yrMwcjvubHEvKh-19" value="" style="endArrow=classic;html=1;rounded=0;exitX=0.5;exitY=1;exitDx=0;exitDy=0;entryX=0.5;entryY=0;entryDx=0;entryDy=0;" parent="1" source="-IlWu7yrMwcjvubHEvKh-9" target="-IlWu7yrMwcjvubHEvKh-5" edge="1">
          <mxGeometry width="50" height="50" relative="1" as="geometry">
            <mxPoint x="1390" y="580" as="sourcePoint" />
            <mxPoint x="1440" y="530" as="targetPoint" />
          </mxGeometry>
        </mxCell>
        <mxCell id="-IlWu7yrMwcjvubHEvKh-20" value="" style="endArrow=classic;html=1;rounded=0;exitX=0.5;exitY=1;exitDx=0;exitDy=0;entryX=0.5;entryY=0;entryDx=0;entryDy=0;" parent="1" source="-IlWu7yrMwcjvubHEvKh-11" target="-IlWu7yrMwcjvubHEvKh-6" edge="1">
          <mxGeometry width="50" height="50" relative="1" as="geometry">
            <mxPoint x="1620" y="560" as="sourcePoint" />
            <mxPoint x="1670" y="510" as="targetPoint" />
          </mxGeometry>
        </mxCell>
        <mxCell id="-IlWu7yrMwcjvubHEvKh-21" value="" style="endArrow=classic;html=1;rounded=0;entryX=0.5;entryY=1;entryDx=0;entryDy=0;exitX=0.5;exitY=0;exitDx=0;exitDy=0;" parent="1" source="-IlWu7yrMwcjvubHEvKh-12" target="-IlWu7yrMwcjvubHEvKh-5" edge="1">
          <mxGeometry width="50" height="50" relative="1" as="geometry">
            <mxPoint x="1310" y="690" as="sourcePoint" />
            <mxPoint x="1360" y="640" as="targetPoint" />
          </mxGeometry>
        </mxCell>
        <mxCell id="-IlWu7yrMwcjvubHEvKh-22" value="" style="endArrow=classic;html=1;rounded=0;entryX=0.5;entryY=1;entryDx=0;entryDy=0;exitX=0.5;exitY=0;exitDx=0;exitDy=0;" parent="1" source="-IlWu7yrMwcjvubHEvKh-13" target="-IlWu7yrMwcjvubHEvKh-6" edge="1">
          <mxGeometry width="50" height="50" relative="1" as="geometry">
            <mxPoint x="1650" y="730" as="sourcePoint" />
            <mxPoint x="1700" y="680" as="targetPoint" />
          </mxGeometry>
        </mxCell>
        <mxCell id="-IlWu7yrMwcjvubHEvKh-33" value="TCSR_1" style="rounded=0;whiteSpace=wrap;html=1;strokeWidth=2;" parent="1" vertex="1">
          <mxGeometry x="1725" y="760" width="120" height="40" as="geometry" />
        </mxCell>
        <mxCell id="-IlWu7yrMwcjvubHEvKh-34" value="TCSR_0" style="rounded=0;whiteSpace=wrap;html=1;strokeWidth=2;" parent="1" vertex="1">
          <mxGeometry x="1485" y="760" width="120" height="40" as="geometry" />
        </mxCell>
        <mxCell id="-IlWu7yrMwcjvubHEvKh-38" value="" style="endArrow=classic;startArrow=classic;html=1;rounded=0;entryX=0.873;entryY=0.998;entryDx=0;entryDy=0;entryPerimeter=0;exitX=0;exitY=0.5;exitDx=0;exitDy=0;" parent="1" source="-IlWu7yrMwcjvubHEvKh-34" target="-IlWu7yrMwcjvubHEvKh-2" edge="1">
          <mxGeometry width="50" height="50" relative="1" as="geometry">
            <mxPoint x="1330" y="770" as="sourcePoint" />
            <mxPoint x="1380" y="720" as="targetPoint" />
            <Array as="points">
              <mxPoint x="1295" y="780" />
              <mxPoint x="1280" y="760" />
            </Array>
          </mxGeometry>
        </mxCell>
        <mxCell id="-IlWu7yrMwcjvubHEvKh-39" value="" style="endArrow=classic;startArrow=classic;html=1;rounded=0;entryX=0.75;entryY=1;entryDx=0;entryDy=0;exitX=0;exitY=0.75;exitDx=0;exitDy=0;" parent="1" source="-IlWu7yrMwcjvubHEvKh-33" target="-IlWu7yrMwcjvubHEvKh-2" edge="1">
          <mxGeometry width="50" height="50" relative="1" as="geometry">
            <mxPoint x="1465" y="838" as="sourcePoint" />
            <mxPoint x="1260" y="660" as="targetPoint" />
            <Array as="points">
              <mxPoint x="1670" y="790" />
              <mxPoint x="1655" y="810" />
              <mxPoint x="1285" y="810" />
              <mxPoint x="1260" y="780" />
            </Array>
          </mxGeometry>
        </mxCell>
        <mxCell id="-IlWu7yrMwcjvubHEvKh-40" value="TCR_1" style="rounded=0;whiteSpace=wrap;html=1;strokeWidth=2;" parent="1" vertex="1">
          <mxGeometry x="1725" y="830" width="120" height="40" as="geometry" />
        </mxCell>
        <mxCell id="-IlWu7yrMwcjvubHEvKh-41" value="TCR_0" style="rounded=0;whiteSpace=wrap;html=1;strokeWidth=2;" parent="1" vertex="1">
          <mxGeometry x="1485" y="830" width="120" height="40" as="geometry" />
        </mxCell>
        <mxCell id="-IlWu7yrMwcjvubHEvKh-42" value="TCCR_1" style="rounded=0;whiteSpace=wrap;html=1;strokeWidth=2;" parent="1" vertex="1">
          <mxGeometry x="1725" y="900" width="120" height="40" as="geometry" />
        </mxCell>
        <mxCell id="-IlWu7yrMwcjvubHEvKh-43" value="TCCR_0" style="rounded=0;whiteSpace=wrap;html=1;strokeWidth=2;" parent="1" vertex="1">
          <mxGeometry x="1485" y="900" width="120" height="40" as="geometry" />
        </mxCell>
        <mxCell id="-IlWu7yrMwcjvubHEvKh-44" value="" style="endArrow=classic;html=1;rounded=0;exitX=0;exitY=0.5;exitDx=0;exitDy=0;entryX=0.625;entryY=1.006;entryDx=0;entryDy=0;entryPerimeter=0;" parent="1" source="-IlWu7yrMwcjvubHEvKh-41" target="-IlWu7yrMwcjvubHEvKh-2" edge="1">
          <mxGeometry width="50" height="50" relative="1" as="geometry">
            <mxPoint x="1100" y="730" as="sourcePoint" />
            <mxPoint x="1240" y="610" as="targetPoint" />
            <Array as="points">
              <mxPoint x="1285" y="850" />
              <mxPoint x="1240" y="800" />
            </Array>
          </mxGeometry>
        </mxCell>
        <mxCell id="-IlWu7yrMwcjvubHEvKh-45" value="" style="endArrow=classic;html=1;rounded=0;exitX=0;exitY=0.75;exitDx=0;exitDy=0;entryX=0.5;entryY=1;entryDx=0;entryDy=0;" parent="1" source="-IlWu7yrMwcjvubHEvKh-40" target="-IlWu7yrMwcjvubHEvKh-2" edge="1">
          <mxGeometry width="50" height="50" relative="1" as="geometry">
            <mxPoint x="1720" y="820" as="sourcePoint" />
            <mxPoint x="1220" y="590" as="targetPoint" />
            <Array as="points">
              <mxPoint x="1670" y="860" />
              <mxPoint x="1655" y="880" />
              <mxPoint x="1275" y="880" />
              <mxPoint x="1218" y="820" />
            </Array>
          </mxGeometry>
        </mxCell>
        <mxCell id="-IlWu7yrMwcjvubHEvKh-46" value="" style="endArrow=classic;html=1;rounded=0;entryX=0.374;entryY=1.005;entryDx=0;entryDy=0;entryPerimeter=0;exitX=0;exitY=0.5;exitDx=0;exitDy=0;" parent="1" source="-IlWu7yrMwcjvubHEvKh-43" target="-IlWu7yrMwcjvubHEvKh-2" edge="1">
          <mxGeometry width="50" height="50" relative="1" as="geometry">
            <mxPoint x="1010" y="710" as="sourcePoint" />
            <mxPoint x="1060" y="660" as="targetPoint" />
            <Array as="points">
              <mxPoint x="1275" y="920" />
              <mxPoint x="1195" y="840" />
            </Array>
          </mxGeometry>
        </mxCell>
        <mxCell id="-IlWu7yrMwcjvubHEvKh-47" value="" style="endArrow=classic;html=1;rounded=0;exitX=0;exitY=0.75;exitDx=0;exitDy=0;entryX=0.25;entryY=1;entryDx=0;entryDy=0;" parent="1" source="-IlWu7yrMwcjvubHEvKh-42" target="-IlWu7yrMwcjvubHEvKh-2" edge="1">
          <mxGeometry width="50" height="50" relative="1" as="geometry">
            <mxPoint x="1080" y="960" as="sourcePoint" />
            <mxPoint x="1130" y="910" as="targetPoint" />
            <Array as="points">
              <mxPoint x="1670" y="930" />
              <mxPoint x="1655" y="950" />
              <mxPoint x="1265" y="950" />
              <mxPoint x="1175" y="860" />
            </Array>
          </mxGeometry>
        </mxCell>
        <mxCell id="-IlWu7yrMwcjvubHEvKh-49" value="" style="endArrow=classic;html=1;rounded=0;exitX=-0.002;exitY=0.882;exitDx=0;exitDy=0;exitPerimeter=0;" parent="1" source="-IlWu7yrMwcjvubHEvKh-2" edge="1">
          <mxGeometry width="50" height="50" relative="1" as="geometry">
            <mxPoint x="1040" y="590" as="sourcePoint" />
            <mxPoint x="985" y="720" as="targetPoint" />
            <Array as="points">
              <mxPoint x="1125" y="610" />
              <mxPoint x="1125" y="710" />
              <mxPoint x="1115" y="720" />
            </Array>
          </mxGeometry>
        </mxCell>
        <mxCell id="-IlWu7yrMwcjvubHEvKh-50" value="" style="endArrow=classic;html=1;rounded=0;exitX=-0.005;exitY=0.778;exitDx=0;exitDy=0;exitPerimeter=0;" parent="1" source="-IlWu7yrMwcjvubHEvKh-2" edge="1">
          <mxGeometry width="50" height="50" relative="1" as="geometry">
            <mxPoint x="1034" y="581" as="sourcePoint" />
            <mxPoint x="985" y="700" as="targetPoint" />
            <Array as="points">
              <mxPoint x="1115" y="600" />
              <mxPoint x="1115" y="690" />
              <mxPoint x="1105" y="700" />
            </Array>
          </mxGeometry>
        </mxCell>
        <mxCell id="-IlWu7yrMwcjvubHEvKh-51" value="" style="endArrow=classic;html=1;rounded=0;exitX=-0.004;exitY=0.669;exitDx=0;exitDy=0;exitPerimeter=0;" parent="1" source="-IlWu7yrMwcjvubHEvKh-2" edge="1">
          <mxGeometry width="50" height="50" relative="1" as="geometry">
            <mxPoint x="1115" y="570" as="sourcePoint" />
            <mxPoint x="985" y="680" as="targetPoint" />
            <Array as="points">
              <mxPoint x="1105" y="590" />
              <mxPoint x="1105" y="670" />
              <mxPoint x="1095" y="680" />
            </Array>
          </mxGeometry>
        </mxCell>
        <mxCell id="-IlWu7yrMwcjvubHEvKh-52" value="" style="endArrow=classic;html=1;rounded=0;exitX=-0.007;exitY=0.558;exitDx=0;exitDy=0;exitPerimeter=0;" parent="1" source="-IlWu7yrMwcjvubHEvKh-2" edge="1">
          <mxGeometry width="50" height="50" relative="1" as="geometry">
            <mxPoint x="1035" y="553.8399999999999" as="sourcePoint" />
            <mxPoint x="985" y="660" as="targetPoint" />
            <Array as="points">
              <mxPoint x="1095" y="580" />
              <mxPoint x="1095" y="650" />
              <mxPoint x="1085" y="660" />
            </Array>
          </mxGeometry>
        </mxCell>
        <mxCell id="-IlWu7yrMwcjvubHEvKh-53" value="" style="endArrow=classic;html=1;rounded=0;exitX=-0.011;exitY=0.445;exitDx=0;exitDy=0;exitPerimeter=0;" parent="1" source="-IlWu7yrMwcjvubHEvKh-2" edge="1">
          <mxGeometry width="50" height="50" relative="1" as="geometry">
            <mxPoint x="1115" y="542.5" as="sourcePoint" />
            <mxPoint x="985" y="640" as="targetPoint" />
            <Array as="points">
              <mxPoint x="1085" y="570" />
              <mxPoint x="1085" y="630" />
              <mxPoint x="1075" y="640" />
            </Array>
          </mxGeometry>
        </mxCell>
        <mxCell id="-IlWu7yrMwcjvubHEvKh-54" value="" style="endArrow=classic;html=1;rounded=0;exitX=-0.01;exitY=0.335;exitDx=0;exitDy=0;exitPerimeter=0;" parent="1" source="-IlWu7yrMwcjvubHEvKh-2" edge="1">
          <mxGeometry width="50" height="50" relative="1" as="geometry">
            <mxPoint x="1035" y="531.3399999999999" as="sourcePoint" />
            <mxPoint x="985" y="620" as="targetPoint" />
            <Array as="points">
              <mxPoint x="1075" y="560" />
              <mxPoint x="1075" y="610" />
              <mxPoint x="1065" y="620" />
            </Array>
          </mxGeometry>
        </mxCell>
        <mxCell id="-IlWu7yrMwcjvubHEvKh-55" value="CMIA0" style="text;whiteSpace=wrap;" parent="1" vertex="1">
          <mxGeometry x="1015" y="600" width="70" height="40" as="geometry" />
        </mxCell>
        <mxCell id="-IlWu7yrMwcjvubHEvKh-56" value="CMIA1" style="text;whiteSpace=wrap;" parent="1" vertex="1">
          <mxGeometry x="1015" y="620" width="70" height="40" as="geometry" />
        </mxCell>
        <mxCell id="-IlWu7yrMwcjvubHEvKh-57" value="CMIB0" style="text;whiteSpace=wrap;" parent="1" vertex="1">
          <mxGeometry x="1015" y="640" width="70" height="40" as="geometry" />
        </mxCell>
        <mxCell id="-IlWu7yrMwcjvubHEvKh-58" value="CMIB1" style="text;whiteSpace=wrap;" parent="1" vertex="1">
          <mxGeometry x="1015" y="660" width="70" height="40" as="geometry" />
        </mxCell>
        <mxCell id="-IlWu7yrMwcjvubHEvKh-59" value="OVI0" style="text;whiteSpace=wrap;" parent="1" vertex="1">
          <mxGeometry x="1020" y="680" width="60" height="40" as="geometry" />
        </mxCell>
        <mxCell id="-IlWu7yrMwcjvubHEvKh-60" value="OVI1" style="text;whiteSpace=wrap;" parent="1" vertex="1">
          <mxGeometry x="1020" y="700" width="60" height="40" as="geometry" />
        </mxCell>
        <mxCell id="-IlWu7yrMwcjvubHEvKh-61" value="Interrupt signals" style="text;whiteSpace=wrap;rotation=-90;" parent="1" vertex="1">
          <mxGeometry x="920" y="630" width="120" height="40" as="geometry" />
        </mxCell>
        <mxCell id="-IlWu7yrMwcjvubHEvKh-62" value="TMRI0" style="text;whiteSpace=wrap;" parent="1" vertex="1">
          <mxGeometry x="1080" y="440" width="70" height="40" as="geometry" />
        </mxCell>
        <mxCell id="-IlWu7yrMwcjvubHEvKh-63" value="TMRI1" style="text;whiteSpace=wrap;" parent="1" vertex="1">
          <mxGeometry x="1080" y="460" width="70" height="40" as="geometry" />
        </mxCell>
        <mxCell id="-IlWu7yrMwcjvubHEvKh-64" value="" style="endArrow=classic;html=1;rounded=0;entryX=0.003;entryY=0.113;entryDx=0;entryDy=0;entryPerimeter=0;" parent="1" target="-IlWu7yrMwcjvubHEvKh-2" edge="1">
          <mxGeometry width="50" height="50" relative="1" as="geometry">
            <mxPoint x="1075" y="460" as="sourcePoint" />
            <mxPoint x="1135" y="460" as="targetPoint" />
          </mxGeometry>
        </mxCell>
        <mxCell id="-IlWu7yrMwcjvubHEvKh-65" value="" style="endArrow=classic;html=1;rounded=0;entryX=-0.002;entryY=0.225;entryDx=0;entryDy=0;entryPerimeter=0;" parent="1" target="-IlWu7yrMwcjvubHEvKh-2" edge="1">
          <mxGeometry width="50" height="50" relative="1" as="geometry">
            <mxPoint x="1075" y="480" as="sourcePoint" />
            <mxPoint x="1010" y="500" as="targetPoint" />
          </mxGeometry>
        </mxCell>
        <mxCell id="-IlWu7yrMwcjvubHEvKh-66" value="TMO0" style="text;whiteSpace=wrap;" parent="1" vertex="1">
          <mxGeometry x="1100" y="360" width="70" height="40" as="geometry" />
        </mxCell>
        <mxCell id="-IlWu7yrMwcjvubHEvKh-67" value="TMO1" style="text;whiteSpace=wrap;" parent="1" vertex="1">
          <mxGeometry x="1100" y="380" width="70" height="40" as="geometry" />
        </mxCell>
        <mxCell id="-IlWu7yrMwcjvubHEvKh-68" value="" style="endArrow=classic;html=1;rounded=0;exitX=0.424;exitY=0;exitDx=0;exitDy=0;exitPerimeter=0;" parent="1" source="-IlWu7yrMwcjvubHEvKh-2" edge="1">
          <mxGeometry width="50" height="50" relative="1" as="geometry">
            <mxPoint x="1080" y="430" as="sourcePoint" />
            <mxPoint x="1080" y="380" as="targetPoint" />
            <Array as="points">
              <mxPoint x="1205" y="410" />
              <mxPoint x="1175" y="380" />
            </Array>
          </mxGeometry>
        </mxCell>
        <mxCell id="-IlWu7yrMwcjvubHEvKh-70" value="" style="endArrow=classic;html=1;rounded=0;exitX=0.303;exitY=-0.006;exitDx=0;exitDy=0;exitPerimeter=0;" parent="1" source="-IlWu7yrMwcjvubHEvKh-2" edge="1">
          <mxGeometry width="50" height="50" relative="1" as="geometry">
            <mxPoint x="1185" y="439" as="sourcePoint" />
            <mxPoint x="1080" y="400" as="targetPoint" />
            <Array as="points">
              <mxPoint x="1185" y="420" />
              <mxPoint x="1165" y="400" />
            </Array>
          </mxGeometry>
        </mxCell>
        <mxCell id="-IlWu7yrMwcjvubHEvKh-72" value="" style="endArrow=classic;html=1;rounded=0;entryX=0.25;entryY=0;entryDx=0;entryDy=0;" parent="1" target="-IlWu7yrMwcjvubHEvKh-1" edge="1">
          <mxGeometry width="50" height="50" relative="1" as="geometry">
            <mxPoint x="1145" y="220" as="sourcePoint" />
            <mxPoint x="965" y="150" as="targetPoint" />
            <Array as="points">
              <mxPoint x="1205" y="220" />
              <mxPoint x="1215" y="230" />
            </Array>
          </mxGeometry>
        </mxCell>
        <mxCell id="-IlWu7yrMwcjvubHEvKh-73" value="" style="endArrow=classic;html=1;rounded=0;entryX=0.5;entryY=0;entryDx=0;entryDy=0;targetPerimeterSpacing=1;" parent="1" target="-IlWu7yrMwcjvubHEvKh-1" edge="1">
          <mxGeometry width="50" height="50" relative="1" as="geometry">
            <mxPoint x="1145" y="180" as="sourcePoint" />
            <mxPoint x="1080" y="180" as="targetPoint" />
            <Array as="points">
              <mxPoint x="1225" y="180" />
              <mxPoint x="1255" y="210" />
            </Array>
          </mxGeometry>
        </mxCell>
        <mxCell id="-IlWu7yrMwcjvubHEvKh-74" value="" style="endArrow=classic;html=1;rounded=0;entryX=0.75;entryY=0;entryDx=0;entryDy=0;" parent="1" target="-IlWu7yrMwcjvubHEvKh-1" edge="1">
          <mxGeometry width="50" height="50" relative="1" as="geometry">
            <mxPoint x="1145" y="140" as="sourcePoint" />
            <mxPoint x="1355" y="180" as="targetPoint" />
            <Array as="points">
              <mxPoint x="1245" y="140" />
              <mxPoint x="1295" y="190" />
            </Array>
          </mxGeometry>
        </mxCell>
        <mxCell id="-IlWu7yrMwcjvubHEvKh-75" value="" style="endArrow=classic;html=1;rounded=0;entryX=0.376;entryY=-0.005;entryDx=0;entryDy=0;entryPerimeter=0;" parent="1" target="-IlWu7yrMwcjvubHEvKh-1" edge="1">
          <mxGeometry width="50" height="50" relative="1" as="geometry">
            <mxPoint x="1145" y="200" as="sourcePoint" />
            <mxPoint x="1075" y="260" as="targetPoint" />
            <Array as="points">
              <mxPoint x="1215" y="200" />
              <mxPoint x="1235" y="220" />
            </Array>
          </mxGeometry>
        </mxCell>
        <mxCell id="-IlWu7yrMwcjvubHEvKh-76" value="" style="endArrow=classic;html=1;rounded=0;entryX=0.63;entryY=-0.009;entryDx=0;entryDy=0;entryPerimeter=0;" parent="1" target="-IlWu7yrMwcjvubHEvKh-1" edge="1">
          <mxGeometry width="50" height="50" relative="1" as="geometry">
            <mxPoint x="1145" y="160" as="sourcePoint" />
            <mxPoint x="1245" y="170" as="targetPoint" />
            <Array as="points">
              <mxPoint x="1235" y="160" />
              <mxPoint x="1275" y="200" />
            </Array>
          </mxGeometry>
        </mxCell>
        <mxCell id="-IlWu7yrMwcjvubHEvKh-77" value="" style="endArrow=classic;html=1;rounded=0;entryX=0.879;entryY=-0.005;entryDx=0;entryDy=0;entryPerimeter=0;" parent="1" target="-IlWu7yrMwcjvubHEvKh-1" edge="1">
          <mxGeometry width="50" height="50" relative="1" as="geometry">
            <mxPoint x="1145" y="120" as="sourcePoint" />
            <mxPoint x="1055" y="160" as="targetPoint" />
            <Array as="points">
              <mxPoint x="1255" y="120" />
              <mxPoint x="1315" y="180" />
            </Array>
          </mxGeometry>
        </mxCell>
        <mxCell id="-IlWu7yrMwcjvubHEvKh-79" value="TMCI0" style="text;whiteSpace=wrap;" parent="1" vertex="1">
          <mxGeometry x="1115" y="260" width="70" height="40" as="geometry" />
        </mxCell>
        <mxCell id="-IlWu7yrMwcjvubHEvKh-80" value="" style="endArrow=classic;html=1;rounded=0;entryX=-0.007;entryY=0.377;entryDx=0;entryDy=0;entryPerimeter=0;" parent="1" target="-IlWu7yrMwcjvubHEvKh-1" edge="1">
          <mxGeometry width="50" height="50" relative="1" as="geometry">
            <mxPoint x="1105" y="280" as="sourcePoint" />
            <mxPoint x="1145" y="260" as="targetPoint" />
          </mxGeometry>
        </mxCell>
        <mxCell id="-IlWu7yrMwcjvubHEvKh-81" value="" style="endArrow=classic;html=1;rounded=0;entryX=0;entryY=0.75;entryDx=0;entryDy=0;" parent="1" target="-IlWu7yrMwcjvubHEvKh-1" edge="1">
          <mxGeometry width="50" height="50" relative="1" as="geometry">
            <mxPoint x="1105" y="310" as="sourcePoint" />
            <mxPoint x="1115" y="290" as="targetPoint" />
          </mxGeometry>
        </mxCell>
        <mxCell id="-IlWu7yrMwcjvubHEvKh-82" value="TMCI1" style="text;whiteSpace=wrap;" parent="1" vertex="1">
          <mxGeometry x="1115" y="290" width="70" height="40" as="geometry" />
        </mxCell>
        <mxCell id="-IlWu7yrMwcjvubHEvKh-85" value="" style="endArrow=classic;html=1;rounded=0;exitX=0.727;exitY=0;exitDx=0;exitDy=0;entryX=0.5;entryY=1;entryDx=0;entryDy=0;exitPerimeter=0;" parent="1" source="-IlWu7yrMwcjvubHEvKh-2" target="-IlWu7yrMwcjvubHEvKh-1" edge="1">
          <mxGeometry width="50" height="50" relative="1" as="geometry">
            <mxPoint x="1235" y="410" as="sourcePoint" />
            <mxPoint x="1285" y="360" as="targetPoint" />
          </mxGeometry>
        </mxCell>
        <mxCell id="-IlWu7yrMwcjvubHEvKh-86" value="" style="endArrow=classic;html=1;rounded=0;exitX=1.009;exitY=0.631;exitDx=0;exitDy=0;entryX=1;entryY=0.75;entryDx=0;entryDy=0;exitPerimeter=0;" parent="1" source="-IlWu7yrMwcjvubHEvKh-1" target="-IlWu7yrMwcjvubHEvKh-9" edge="1">
          <mxGeometry width="50" height="50" relative="1" as="geometry">
            <mxPoint x="1565" y="260" as="sourcePoint" />
            <mxPoint x="1635" y="490" as="targetPoint" />
            <Array as="points">
              <mxPoint x="1620" y="300" />
              <mxPoint x="1650" y="330" />
              <mxPoint x="1650" y="520" />
              <mxPoint x="1630" y="540" />
            </Array>
          </mxGeometry>
        </mxCell>
        <mxCell id="-IlWu7yrMwcjvubHEvKh-87" value="" style="endArrow=classic;html=1;rounded=0;exitX=1.005;exitY=0.127;exitDx=0;exitDy=0;entryX=1;entryY=0.75;entryDx=0;entryDy=0;exitPerimeter=0;" parent="1" source="-IlWu7yrMwcjvubHEvKh-1" target="-IlWu7yrMwcjvubHEvKh-11" edge="1">
          <mxGeometry width="50" height="50" relative="1" as="geometry">
            <mxPoint x="1345" y="280" as="sourcePoint" />
            <mxPoint x="1925.5128205128206" y="390" as="targetPoint" />
            <Array as="points">
              <mxPoint x="1870" y="260" />
              <mxPoint x="1900" y="290" />
              <mxPoint x="1900" y="520" />
              <mxPoint x="1880" y="540" />
            </Array>
          </mxGeometry>
        </mxCell>
        <mxCell id="-IlWu7yrMwcjvubHEvKh-88" value="External clocks" style="text;html=1;align=center;verticalAlign=middle;resizable=0;points=[];autosize=1;strokeColor=none;fillColor=none;rotation=-90;" parent="1" vertex="1">
          <mxGeometry x="1040" y="275" width="100" height="30" as="geometry" />
        </mxCell>
        <mxCell id="-IlWu7yrMwcjvubHEvKh-90" value="clock_select_0" style="text;html=1;align=center;verticalAlign=middle;resizable=0;points=[];autosize=1;strokeColor=none;fillColor=none;rotation=-90;" parent="1" vertex="1">
          <mxGeometry x="1195" y="369" width="100" height="30" as="geometry" />
        </mxCell>
        <mxCell id="-IlWu7yrMwcjvubHEvKh-92" value="" style="shape=link;endArrow=classic;startArrow=classic;html=1;rounded=0;entryX=0;entryY=0.5;entryDx=0;entryDy=0;exitX=1;exitY=0.5;exitDx=0;exitDy=0;" parent="1" source="-IlWu7yrMwcjvubHEvKh-9" target="-IlWu7yrMwcjvubHEvKh-11" edge="1">
          <mxGeometry width="100" height="100" relative="1" as="geometry">
            <mxPoint x="1515" y="580" as="sourcePoint" />
            <mxPoint x="1615" y="480" as="targetPoint" />
          </mxGeometry>
        </mxCell>
        <mxCell id="-IlWu7yrMwcjvubHEvKh-93" value="" style="endArrow=none;html=1;rounded=0;" parent="1" edge="1">
          <mxGeometry width="50" height="50" relative="1" as="geometry">
            <mxPoint x="1655" y="540" as="sourcePoint" />
            <mxPoint x="1675" y="520" as="targetPoint" />
          </mxGeometry>
        </mxCell>
        <mxCell id="-IlWu7yrMwcjvubHEvKh-94" value="16" style="text;html=1;align=center;verticalAlign=middle;resizable=0;points=[];autosize=1;strokeColor=none;fillColor=none;" parent="1" vertex="1">
          <mxGeometry x="1645" y="500" width="40" height="30" as="geometry" />
        </mxCell>
        <mxCell id="-IlWu7yrMwcjvubHEvKh-95" value="" style="shape=link;endArrow=classic;startArrow=classic;html=1;rounded=0;entryX=0;entryY=0.5;entryDx=0;entryDy=0;exitX=1;exitY=0.5;exitDx=0;exitDy=0;" parent="1" source="-IlWu7yrMwcjvubHEvKh-7" target="-IlWu7yrMwcjvubHEvKh-8" edge="1">
          <mxGeometry width="100" height="100" relative="1" as="geometry">
            <mxPoint x="1635" y="360" as="sourcePoint" />
            <mxPoint x="1705" y="360" as="targetPoint" />
          </mxGeometry>
        </mxCell>
        <mxCell id="-IlWu7yrMwcjvubHEvKh-96" value="" style="endArrow=none;html=1;rounded=0;" parent="1" edge="1">
          <mxGeometry width="50" height="50" relative="1" as="geometry">
            <mxPoint x="1655" y="370" as="sourcePoint" />
            <mxPoint x="1675" y="350" as="targetPoint" />
          </mxGeometry>
        </mxCell>
        <mxCell id="-IlWu7yrMwcjvubHEvKh-97" value="16" style="text;html=1;align=center;verticalAlign=middle;resizable=0;points=[];autosize=1;strokeColor=none;fillColor=none;" parent="1" vertex="1">
          <mxGeometry x="1645" y="330" width="40" height="30" as="geometry" />
        </mxCell>
        <mxCell id="-IlWu7yrMwcjvubHEvKh-99" value="" style="shape=link;endArrow=classic;startArrow=classic;html=1;rounded=0;entryX=0;entryY=0.5;entryDx=0;entryDy=0;exitX=1;exitY=0.5;exitDx=0;exitDy=0;" parent="1" source="-IlWu7yrMwcjvubHEvKh-12" target="-IlWu7yrMwcjvubHEvKh-13" edge="1">
          <mxGeometry width="100" height="100" relative="1" as="geometry">
            <mxPoint x="1625" y="700" as="sourcePoint" />
            <mxPoint x="1705" y="700" as="targetPoint" />
          </mxGeometry>
        </mxCell>
        <mxCell id="-IlWu7yrMwcjvubHEvKh-100" value="" style="endArrow=none;html=1;rounded=0;" parent="1" edge="1">
          <mxGeometry width="50" height="50" relative="1" as="geometry">
            <mxPoint x="1655" y="720" as="sourcePoint" />
            <mxPoint x="1675" y="700" as="targetPoint" />
          </mxGeometry>
        </mxCell>
        <mxCell id="-IlWu7yrMwcjvubHEvKh-101" value="16" style="text;html=1;align=center;verticalAlign=middle;resizable=0;points=[];autosize=1;strokeColor=none;fillColor=none;" parent="1" vertex="1">
          <mxGeometry x="1645" y="680" width="40" height="30" as="geometry" />
        </mxCell>
        <mxCell id="-IlWu7yrMwcjvubHEvKh-104" value="" style="endArrow=classic;html=1;rounded=0;entryX=0;entryY=0.75;entryDx=0;entryDy=0;exitX=1.005;exitY=0.558;exitDx=0;exitDy=0;exitPerimeter=0;" parent="1" source="-IlWu7yrMwcjvubHEvKh-2" target="-IlWu7yrMwcjvubHEvKh-9" edge="1">
          <mxGeometry width="50" height="50" relative="1" as="geometry">
            <mxPoint x="1305" y="540" as="sourcePoint" />
            <mxPoint x="1375" y="530" as="targetPoint" />
          </mxGeometry>
        </mxCell>
        <mxCell id="-IlWu7yrMwcjvubHEvKh-105" value="" style="endArrow=classic;html=1;rounded=0;exitX=0;exitY=0.25;exitDx=0;exitDy=0;entryX=1.009;entryY=0.442;entryDx=0;entryDy=0;entryPerimeter=0;" parent="1" source="-IlWu7yrMwcjvubHEvKh-9" target="-IlWu7yrMwcjvubHEvKh-2" edge="1">
          <mxGeometry width="50" height="50" relative="1" as="geometry">
            <mxPoint x="1425" y="520" as="sourcePoint" />
            <mxPoint x="1425" y="470" as="targetPoint" />
          </mxGeometry>
        </mxCell>
        <mxCell id="-IlWu7yrMwcjvubHEvKh-106" value="Overflow 0" style="text;whiteSpace=wrap;" parent="1" vertex="1">
          <mxGeometry x="1360" y="500" width="90" height="40" as="geometry" />
        </mxCell>
        <mxCell id="-IlWu7yrMwcjvubHEvKh-107" value="Counter clear 0" style="text;whiteSpace=wrap;" parent="1" vertex="1">
          <mxGeometry x="1345" y="520" width="120" height="40" as="geometry" />
        </mxCell>
        <mxCell id="-IlWu7yrMwcjvubHEvKh-108" value="" style="endArrow=classic;html=1;rounded=0;exitX=0;exitY=0.25;exitDx=0;exitDy=0;entryX=1.006;entryY=0.332;entryDx=0;entryDy=0;entryPerimeter=0;" parent="1" source="-IlWu7yrMwcjvubHEvKh-11" target="-IlWu7yrMwcjvubHEvKh-2" edge="1">
          <mxGeometry width="50" height="50" relative="1" as="geometry">
            <mxPoint x="1385" y="480" as="sourcePoint" />
            <mxPoint x="1435" y="430" as="targetPoint" />
            <Array as="points">
              <mxPoint x="1685" y="500" />
            </Array>
          </mxGeometry>
        </mxCell>
        <mxCell id="-IlWu7yrMwcjvubHEvKh-109" value="" style="endArrow=classic;html=1;rounded=0;entryX=0;entryY=0.75;entryDx=0;entryDy=0;exitX=1;exitY=0.669;exitDx=0;exitDy=0;exitPerimeter=0;" parent="1" source="-IlWu7yrMwcjvubHEvKh-2" target="-IlWu7yrMwcjvubHEvKh-11" edge="1">
          <mxGeometry width="50" height="50" relative="1" as="geometry">
            <mxPoint x="1325" y="560" as="sourcePoint" />
            <mxPoint x="1445" y="550" as="targetPoint" />
            <Array as="points">
              <mxPoint x="1685" y="560" />
            </Array>
          </mxGeometry>
        </mxCell>
        <mxCell id="-IlWu7yrMwcjvubHEvKh-111" value="Overflow 1" style="text;whiteSpace=wrap;html=1;" parent="1" vertex="1">
          <mxGeometry x="1360" y="480" width="90" height="40" as="geometry" />
        </mxCell>
        <mxCell id="-IlWu7yrMwcjvubHEvKh-112" value="Counter clear 1" style="text;whiteSpace=wrap;html=1;" parent="1" vertex="1">
          <mxGeometry x="1345" y="540" width="120" height="40" as="geometry" />
        </mxCell>
        <mxCell id="-IlWu7yrMwcjvubHEvKh-113" value="" style="endArrow=classic;html=1;rounded=0;entryX=1.004;entryY=0.777;entryDx=0;entryDy=0;entryPerimeter=0;exitX=0;exitY=0.5;exitDx=0;exitDy=0;" parent="1" source="-IlWu7yrMwcjvubHEvKh-6" target="-IlWu7yrMwcjvubHEvKh-2" edge="1">
          <mxGeometry width="50" height="50" relative="1" as="geometry">
            <mxPoint x="1315" y="630" as="sourcePoint" />
            <mxPoint x="1365" y="580" as="targetPoint" />
            <Array as="points">
              <mxPoint x="1675" y="620" />
              <mxPoint x="1655" y="580" />
            </Array>
          </mxGeometry>
        </mxCell>
        <mxCell id="-IlWu7yrMwcjvubHEvKh-115" value="" style="endArrow=classic;html=1;rounded=0;exitX=0;exitY=0.5;exitDx=0;exitDy=0;entryX=1;entryY=0.89;entryDx=0;entryDy=0;entryPerimeter=0;" parent="1" source="-IlWu7yrMwcjvubHEvKh-5" target="-IlWu7yrMwcjvubHEvKh-2" edge="1">
          <mxGeometry width="50" height="50" relative="1" as="geometry">
            <mxPoint x="1345" y="640" as="sourcePoint" />
            <mxPoint x="1305" y="600" as="targetPoint" />
            <Array as="points">
              <mxPoint x="1455" y="630" />
              <mxPoint x="1445" y="600" />
            </Array>
          </mxGeometry>
        </mxCell>
        <mxCell id="-IlWu7yrMwcjvubHEvKh-116" value="Compare match B1" style="text;whiteSpace=wrap;" parent="1" vertex="1">
          <mxGeometry x="1335" y="560" width="140" height="40" as="geometry" />
        </mxCell>
        <mxCell id="-IlWu7yrMwcjvubHEvKh-117" value="Compare match B0" style="text;whiteSpace=wrap;" parent="1" vertex="1">
          <mxGeometry x="1335" y="580" width="140" height="40" as="geometry" />
        </mxCell>
        <mxCell id="-IlWu7yrMwcjvubHEvKh-118" value="" style="endArrow=classic;html=1;rounded=0;exitX=0;exitY=0.5;exitDx=0;exitDy=0;entryX=1.008;entryY=0.221;entryDx=0;entryDy=0;entryPerimeter=0;" parent="1" source="-IlWu7yrMwcjvubHEvKh-4" target="-IlWu7yrMwcjvubHEvKh-2" edge="1">
          <mxGeometry width="50" height="50" relative="1" as="geometry">
            <mxPoint x="1395" y="480" as="sourcePoint" />
            <mxPoint x="1335" y="480" as="targetPoint" />
            <Array as="points">
              <mxPoint x="1675" y="430" />
              <mxPoint x="1655" y="480" />
            </Array>
          </mxGeometry>
        </mxCell>
        <mxCell id="-IlWu7yrMwcjvubHEvKh-120" value="Compare match A1" style="text;whiteSpace=wrap;" parent="1" vertex="1">
          <mxGeometry x="1335" y="460" width="140" height="40" as="geometry" />
        </mxCell>
        <mxCell id="-IlWu7yrMwcjvubHEvKh-121" value="" style="endArrow=classic;html=1;rounded=0;exitX=0;exitY=0.5;exitDx=0;exitDy=0;entryX=1.007;entryY=0.114;entryDx=0;entryDy=0;entryPerimeter=0;" parent="1" source="-IlWu7yrMwcjvubHEvKh-3" target="-IlWu7yrMwcjvubHEvKh-2" edge="1">
          <mxGeometry width="50" height="50" relative="1" as="geometry">
            <mxPoint x="1425" y="380" as="sourcePoint" />
            <mxPoint x="1305" y="460" as="targetPoint" />
            <Array as="points">
              <mxPoint x="1455" y="430" />
              <mxPoint x="1445" y="460" />
            </Array>
          </mxGeometry>
        </mxCell>
        <mxCell id="-IlWu7yrMwcjvubHEvKh-122" value="Compare match A0" style="text;whiteSpace=wrap;" parent="1" vertex="1">
          <mxGeometry x="1335" y="440" width="140" height="40" as="geometry" />
        </mxCell>
        <mxCell id="-IlWu7yrMwcjvubHEvKh-127" value="P/2" style="text;whiteSpace=wrap;" parent="1" vertex="1">
          <mxGeometry x="1165" y="200" width="60" height="40" as="geometry" />
        </mxCell>
        <mxCell id="-IlWu7yrMwcjvubHEvKh-128" value="P/8" style="text;whiteSpace=wrap;" parent="1" vertex="1">
          <mxGeometry x="1165" y="180" width="60" height="40" as="geometry" />
        </mxCell>
        <mxCell id="-IlWu7yrMwcjvubHEvKh-129" value="P/32" style="text;whiteSpace=wrap;" parent="1" vertex="1">
          <mxGeometry x="1165" y="160" width="60" height="40" as="geometry" />
        </mxCell>
        <mxCell id="-IlWu7yrMwcjvubHEvKh-130" value="P/64" style="text;whiteSpace=wrap;" parent="1" vertex="1">
          <mxGeometry x="1165" y="140" width="60" height="40" as="geometry" />
        </mxCell>
        <mxCell id="-IlWu7yrMwcjvubHEvKh-131" value="P/1024" style="text;whiteSpace=wrap;" parent="1" vertex="1">
          <mxGeometry x="1165" y="120" width="60" height="40" as="geometry" />
        </mxCell>
        <mxCell id="-IlWu7yrMwcjvubHEvKh-132" value="P/8192" style="text;whiteSpace=wrap;" parent="1" vertex="1">
          <mxGeometry x="1165" y="100" width="60" height="40" as="geometry" />
        </mxCell>
        <mxCell id="-IlWu7yrMwcjvubHEvKh-136" value="&lt;font style=&quot;font-size: 20px;&quot;&gt;&lt;span&gt;ClockSelect_1&lt;/span&gt;&lt;/font&gt;" style="rounded=1;whiteSpace=wrap;html=1;fontStyle=1;strokeWidth=3;" parent="1" vertex="1">
          <mxGeometry x="2165" y="255" width="160" height="80" as="geometry" />
        </mxCell>
        <mxCell id="-IlWu7yrMwcjvubHEvKh-137" value="&lt;font style=&quot;font-size: 20px;&quot;&gt;LogicControl_1&lt;/font&gt;" style="rounded=1;whiteSpace=wrap;html=1;strokeWidth=3;fontStyle=1" parent="1" vertex="1">
          <mxGeometry x="2125" y="445" width="165" height="180" as="geometry" />
        </mxCell>
        <mxCell id="-IlWu7yrMwcjvubHEvKh-138" value="&lt;font style=&quot;font-size: 20px;&quot;&gt;Comparator A_2&lt;/font&gt;" style="rounded=1;whiteSpace=wrap;html=1;strokeWidth=3;fontStyle=1" parent="1" vertex="1">
          <mxGeometry x="2450" y="405" width="170" height="60" as="geometry" />
        </mxCell>
        <mxCell id="-IlWu7yrMwcjvubHEvKh-139" value="&lt;font style=&quot;font-size: 20px;&quot;&gt;Comparator A_3&lt;/font&gt;" style="rounded=1;whiteSpace=wrap;html=1;strokeWidth=3;fontStyle=1" parent="1" vertex="1">
          <mxGeometry x="2690" y="405" width="170" height="60" as="geometry" />
        </mxCell>
        <mxCell id="-IlWu7yrMwcjvubHEvKh-140" value="&lt;font style=&quot;font-size: 20px;&quot;&gt;Comparator B_2&lt;/font&gt;" style="rounded=1;whiteSpace=wrap;html=1;strokeWidth=3;fontStyle=1" parent="1" vertex="1">
          <mxGeometry x="2450" y="605" width="170" height="60" as="geometry" />
        </mxCell>
        <mxCell id="-IlWu7yrMwcjvubHEvKh-141" value="&lt;font style=&quot;font-size: 20px;&quot;&gt;Comparator B_3&lt;/font&gt;" style="rounded=1;whiteSpace=wrap;html=1;strokeWidth=3;fontStyle=1" parent="1" vertex="1">
          <mxGeometry x="2690" y="595" width="170" height="60" as="geometry" />
        </mxCell>
        <mxCell id="-IlWu7yrMwcjvubHEvKh-142" value="TCORA_2" style="rounded=0;whiteSpace=wrap;html=1;strokeWidth=2;" parent="1" vertex="1">
          <mxGeometry x="2475" y="345" width="120" height="40" as="geometry" />
        </mxCell>
        <mxCell id="-IlWu7yrMwcjvubHEvKh-143" value="TCORA_3" style="rounded=0;whiteSpace=wrap;html=1;strokeWidth=2;" parent="1" vertex="1">
          <mxGeometry x="2715" y="345" width="120" height="40" as="geometry" />
        </mxCell>
        <mxCell id="-IlWu7yrMwcjvubHEvKh-144" value="TCNT_2" style="rounded=0;whiteSpace=wrap;html=1;strokeWidth=2;" parent="1" vertex="1">
          <mxGeometry x="2475" y="515" width="120" height="40" as="geometry" />
        </mxCell>
        <mxCell id="-IlWu7yrMwcjvubHEvKh-145" value="TCNT_3" style="rounded=0;whiteSpace=wrap;html=1;strokeWidth=2;" parent="1" vertex="1">
          <mxGeometry x="2715" y="515" width="120" height="40" as="geometry" />
        </mxCell>
        <mxCell id="-IlWu7yrMwcjvubHEvKh-146" value="TCORB_0" style="rounded=0;whiteSpace=wrap;html=1;strokeWidth=2;" parent="1" vertex="1">
          <mxGeometry x="2475" y="695" width="120" height="40" as="geometry" />
        </mxCell>
        <mxCell id="-IlWu7yrMwcjvubHEvKh-147" value="TCORB_1" style="rounded=0;whiteSpace=wrap;html=1;strokeWidth=2;" parent="1" vertex="1">
          <mxGeometry x="2715" y="695" width="120" height="40" as="geometry" />
        </mxCell>
        <mxCell id="-IlWu7yrMwcjvubHEvKh-148" value="" style="endArrow=classic;html=1;rounded=0;exitX=0.5;exitY=1;exitDx=0;exitDy=0;entryX=0.5;entryY=0;entryDx=0;entryDy=0;" parent="1" source="-IlWu7yrMwcjvubHEvKh-142" target="-IlWu7yrMwcjvubHEvKh-138" edge="1">
          <mxGeometry width="50" height="50" relative="1" as="geometry">
            <mxPoint x="2640" y="375" as="sourcePoint" />
            <mxPoint x="2690" y="325" as="targetPoint" />
          </mxGeometry>
        </mxCell>
        <mxCell id="-IlWu7yrMwcjvubHEvKh-149" value="" style="endArrow=classic;html=1;rounded=0;exitX=0.5;exitY=1;exitDx=0;exitDy=0;entryX=0.5;entryY=0;entryDx=0;entryDy=0;" parent="1" source="-IlWu7yrMwcjvubHEvKh-143" target="-IlWu7yrMwcjvubHEvKh-139" edge="1">
          <mxGeometry width="50" height="50" relative="1" as="geometry">
            <mxPoint x="2860" y="425" as="sourcePoint" />
            <mxPoint x="2910" y="375" as="targetPoint" />
          </mxGeometry>
        </mxCell>
        <mxCell id="-IlWu7yrMwcjvubHEvKh-150" value="" style="endArrow=classic;html=1;rounded=0;exitX=0.5;exitY=0;exitDx=0;exitDy=0;entryX=0.5;entryY=1;entryDx=0;entryDy=0;" parent="1" source="-IlWu7yrMwcjvubHEvKh-145" target="-IlWu7yrMwcjvubHEvKh-139" edge="1">
          <mxGeometry width="50" height="50" relative="1" as="geometry">
            <mxPoint x="2640" y="525" as="sourcePoint" />
            <mxPoint x="2690" y="475" as="targetPoint" />
          </mxGeometry>
        </mxCell>
        <mxCell id="-IlWu7yrMwcjvubHEvKh-151" value="" style="endArrow=classic;html=1;rounded=0;entryX=0.5;entryY=1;entryDx=0;entryDy=0;exitX=0.5;exitY=0;exitDx=0;exitDy=0;" parent="1" source="-IlWu7yrMwcjvubHEvKh-144" target="-IlWu7yrMwcjvubHEvKh-138" edge="1">
          <mxGeometry width="50" height="50" relative="1" as="geometry">
            <mxPoint x="2470" y="545" as="sourcePoint" />
            <mxPoint x="2520" y="495" as="targetPoint" />
          </mxGeometry>
        </mxCell>
        <mxCell id="-IlWu7yrMwcjvubHEvKh-152" value="" style="endArrow=classic;html=1;rounded=0;exitX=0.5;exitY=1;exitDx=0;exitDy=0;entryX=0.5;entryY=0;entryDx=0;entryDy=0;" parent="1" source="-IlWu7yrMwcjvubHEvKh-144" target="-IlWu7yrMwcjvubHEvKh-140" edge="1">
          <mxGeometry width="50" height="50" relative="1" as="geometry">
            <mxPoint x="2380" y="585" as="sourcePoint" />
            <mxPoint x="2430" y="535" as="targetPoint" />
          </mxGeometry>
        </mxCell>
        <mxCell id="-IlWu7yrMwcjvubHEvKh-153" value="" style="endArrow=classic;html=1;rounded=0;exitX=0.5;exitY=1;exitDx=0;exitDy=0;entryX=0.5;entryY=0;entryDx=0;entryDy=0;" parent="1" source="-IlWu7yrMwcjvubHEvKh-145" target="-IlWu7yrMwcjvubHEvKh-141" edge="1">
          <mxGeometry width="50" height="50" relative="1" as="geometry">
            <mxPoint x="2610" y="565" as="sourcePoint" />
            <mxPoint x="2660" y="515" as="targetPoint" />
          </mxGeometry>
        </mxCell>
        <mxCell id="-IlWu7yrMwcjvubHEvKh-154" value="" style="endArrow=classic;html=1;rounded=0;entryX=0.5;entryY=1;entryDx=0;entryDy=0;exitX=0.5;exitY=0;exitDx=0;exitDy=0;" parent="1" source="-IlWu7yrMwcjvubHEvKh-146" target="-IlWu7yrMwcjvubHEvKh-140" edge="1">
          <mxGeometry width="50" height="50" relative="1" as="geometry">
            <mxPoint x="2300" y="695" as="sourcePoint" />
            <mxPoint x="2350" y="645" as="targetPoint" />
          </mxGeometry>
        </mxCell>
        <mxCell id="-IlWu7yrMwcjvubHEvKh-155" value="" style="endArrow=classic;html=1;rounded=0;entryX=0.5;entryY=1;entryDx=0;entryDy=0;exitX=0.5;exitY=0;exitDx=0;exitDy=0;" parent="1" source="-IlWu7yrMwcjvubHEvKh-147" target="-IlWu7yrMwcjvubHEvKh-141" edge="1">
          <mxGeometry width="50" height="50" relative="1" as="geometry">
            <mxPoint x="2640" y="735" as="sourcePoint" />
            <mxPoint x="2690" y="685" as="targetPoint" />
          </mxGeometry>
        </mxCell>
        <mxCell id="-IlWu7yrMwcjvubHEvKh-156" value="TCSR_3" style="rounded=0;whiteSpace=wrap;html=1;strokeWidth=2;" parent="1" vertex="1">
          <mxGeometry x="2715" y="765" width="120" height="40" as="geometry" />
        </mxCell>
        <mxCell id="-IlWu7yrMwcjvubHEvKh-157" value="TCSR_2" style="rounded=0;whiteSpace=wrap;html=1;strokeWidth=2;" parent="1" vertex="1">
          <mxGeometry x="2475" y="765" width="120" height="40" as="geometry" />
        </mxCell>
        <mxCell id="-IlWu7yrMwcjvubHEvKh-158" value="" style="endArrow=classic;startArrow=classic;html=1;rounded=0;entryX=0.873;entryY=0.998;entryDx=0;entryDy=0;entryPerimeter=0;exitX=0;exitY=0.5;exitDx=0;exitDy=0;" parent="1" source="-IlWu7yrMwcjvubHEvKh-157" target="-IlWu7yrMwcjvubHEvKh-137" edge="1">
          <mxGeometry width="50" height="50" relative="1" as="geometry">
            <mxPoint x="2320" y="775" as="sourcePoint" />
            <mxPoint x="2370" y="725" as="targetPoint" />
            <Array as="points">
              <mxPoint x="2285" y="785" />
              <mxPoint x="2270" y="765" />
            </Array>
          </mxGeometry>
        </mxCell>
        <mxCell id="-IlWu7yrMwcjvubHEvKh-159" value="" style="endArrow=classic;startArrow=classic;html=1;rounded=0;entryX=0.75;entryY=1;entryDx=0;entryDy=0;exitX=0;exitY=0.75;exitDx=0;exitDy=0;" parent="1" source="-IlWu7yrMwcjvubHEvKh-156" target="-IlWu7yrMwcjvubHEvKh-137" edge="1">
          <mxGeometry width="50" height="50" relative="1" as="geometry">
            <mxPoint x="2455" y="843" as="sourcePoint" />
            <mxPoint x="2250" y="665" as="targetPoint" />
            <Array as="points">
              <mxPoint x="2665" y="795" />
              <mxPoint x="2645" y="815" />
              <mxPoint x="2275" y="815" />
              <mxPoint x="2250" y="785" />
            </Array>
          </mxGeometry>
        </mxCell>
        <mxCell id="-IlWu7yrMwcjvubHEvKh-160" value="TCR_3" style="rounded=0;whiteSpace=wrap;html=1;strokeWidth=2;" parent="1" vertex="1">
          <mxGeometry x="2715" y="835" width="120" height="40" as="geometry" />
        </mxCell>
        <mxCell id="-IlWu7yrMwcjvubHEvKh-161" value="TCR_2" style="rounded=0;whiteSpace=wrap;html=1;strokeWidth=2;" parent="1" vertex="1">
          <mxGeometry x="2475" y="835" width="120" height="40" as="geometry" />
        </mxCell>
        <mxCell id="-IlWu7yrMwcjvubHEvKh-162" value="TCCR_3" style="rounded=0;whiteSpace=wrap;html=1;strokeWidth=2;" parent="1" vertex="1">
          <mxGeometry x="2715" y="905" width="120" height="40" as="geometry" />
        </mxCell>
        <mxCell id="-IlWu7yrMwcjvubHEvKh-163" value="TCCR_2" style="rounded=0;whiteSpace=wrap;html=1;strokeWidth=2;" parent="1" vertex="1">
          <mxGeometry x="2475" y="905" width="120" height="40" as="geometry" />
        </mxCell>
        <mxCell id="-IlWu7yrMwcjvubHEvKh-164" value="" style="endArrow=classic;html=1;rounded=0;exitX=0;exitY=0.5;exitDx=0;exitDy=0;entryX=0.625;entryY=1.006;entryDx=0;entryDy=0;entryPerimeter=0;" parent="1" source="-IlWu7yrMwcjvubHEvKh-161" target="-IlWu7yrMwcjvubHEvKh-137" edge="1">
          <mxGeometry width="50" height="50" relative="1" as="geometry">
            <mxPoint x="2090" y="735" as="sourcePoint" />
            <mxPoint x="2230" y="615" as="targetPoint" />
            <Array as="points">
              <mxPoint x="2275" y="855" />
              <mxPoint x="2230" y="805" />
            </Array>
          </mxGeometry>
        </mxCell>
        <mxCell id="-IlWu7yrMwcjvubHEvKh-165" value="" style="endArrow=classic;html=1;rounded=0;exitX=0;exitY=0.75;exitDx=0;exitDy=0;entryX=0.5;entryY=1;entryDx=0;entryDy=0;" parent="1" source="-IlWu7yrMwcjvubHEvKh-160" target="-IlWu7yrMwcjvubHEvKh-137" edge="1">
          <mxGeometry width="50" height="50" relative="1" as="geometry">
            <mxPoint x="2710" y="825" as="sourcePoint" />
            <mxPoint x="2210" y="595" as="targetPoint" />
            <Array as="points">
              <mxPoint x="2665" y="865" />
              <mxPoint x="2645" y="885" />
              <mxPoint x="2265" y="885" />
              <mxPoint x="2208" y="825" />
            </Array>
          </mxGeometry>
        </mxCell>
        <mxCell id="-IlWu7yrMwcjvubHEvKh-166" value="" style="endArrow=classic;html=1;rounded=0;entryX=0.374;entryY=1.005;entryDx=0;entryDy=0;entryPerimeter=0;exitX=0;exitY=0.5;exitDx=0;exitDy=0;" parent="1" source="-IlWu7yrMwcjvubHEvKh-163" target="-IlWu7yrMwcjvubHEvKh-137" edge="1">
          <mxGeometry width="50" height="50" relative="1" as="geometry">
            <mxPoint x="2000" y="715" as="sourcePoint" />
            <mxPoint x="2050" y="665" as="targetPoint" />
            <Array as="points">
              <mxPoint x="2265" y="925" />
              <mxPoint x="2185" y="845" />
            </Array>
          </mxGeometry>
        </mxCell>
        <mxCell id="-IlWu7yrMwcjvubHEvKh-167" value="" style="endArrow=classic;html=1;rounded=0;exitX=0;exitY=0.75;exitDx=0;exitDy=0;entryX=0.25;entryY=1;entryDx=0;entryDy=0;" parent="1" source="-IlWu7yrMwcjvubHEvKh-162" target="-IlWu7yrMwcjvubHEvKh-137" edge="1">
          <mxGeometry width="50" height="50" relative="1" as="geometry">
            <mxPoint x="2070" y="965" as="sourcePoint" />
            <mxPoint x="2120" y="915" as="targetPoint" />
            <Array as="points">
              <mxPoint x="2665" y="935" />
              <mxPoint x="2645" y="955" />
              <mxPoint x="2255" y="955" />
              <mxPoint x="2165" y="865" />
            </Array>
          </mxGeometry>
        </mxCell>
        <mxCell id="-IlWu7yrMwcjvubHEvKh-168" value="" style="endArrow=classic;html=1;rounded=0;exitX=-0.002;exitY=0.882;exitDx=0;exitDy=0;exitPerimeter=0;" parent="1" source="-IlWu7yrMwcjvubHEvKh-137" edge="1">
          <mxGeometry width="50" height="50" relative="1" as="geometry">
            <mxPoint x="2030" y="595" as="sourcePoint" />
            <mxPoint x="1975" y="725" as="targetPoint" />
            <Array as="points">
              <mxPoint x="2115" y="615" />
              <mxPoint x="2115" y="715" />
              <mxPoint x="2105" y="725" />
            </Array>
          </mxGeometry>
        </mxCell>
        <mxCell id="-IlWu7yrMwcjvubHEvKh-169" value="" style="endArrow=classic;html=1;rounded=0;exitX=-0.005;exitY=0.778;exitDx=0;exitDy=0;exitPerimeter=0;" parent="1" source="-IlWu7yrMwcjvubHEvKh-137" edge="1">
          <mxGeometry width="50" height="50" relative="1" as="geometry">
            <mxPoint x="2024" y="586" as="sourcePoint" />
            <mxPoint x="1975" y="705" as="targetPoint" />
            <Array as="points">
              <mxPoint x="2105" y="605" />
              <mxPoint x="2105" y="695" />
              <mxPoint x="2095" y="705" />
            </Array>
          </mxGeometry>
        </mxCell>
        <mxCell id="-IlWu7yrMwcjvubHEvKh-170" value="" style="endArrow=classic;html=1;rounded=0;exitX=-0.004;exitY=0.669;exitDx=0;exitDy=0;exitPerimeter=0;" parent="1" source="-IlWu7yrMwcjvubHEvKh-137" edge="1">
          <mxGeometry width="50" height="50" relative="1" as="geometry">
            <mxPoint x="2105" y="575" as="sourcePoint" />
            <mxPoint x="1975" y="685" as="targetPoint" />
            <Array as="points">
              <mxPoint x="2095" y="595" />
              <mxPoint x="2095" y="675" />
              <mxPoint x="2085" y="685" />
            </Array>
          </mxGeometry>
        </mxCell>
        <mxCell id="-IlWu7yrMwcjvubHEvKh-171" value="" style="endArrow=classic;html=1;rounded=0;exitX=-0.007;exitY=0.558;exitDx=0;exitDy=0;exitPerimeter=0;" parent="1" source="-IlWu7yrMwcjvubHEvKh-137" edge="1">
          <mxGeometry width="50" height="50" relative="1" as="geometry">
            <mxPoint x="2025" y="558.8399999999999" as="sourcePoint" />
            <mxPoint x="1975" y="665" as="targetPoint" />
            <Array as="points">
              <mxPoint x="2085" y="585" />
              <mxPoint x="2085" y="655" />
              <mxPoint x="2075" y="665" />
            </Array>
          </mxGeometry>
        </mxCell>
        <mxCell id="-IlWu7yrMwcjvubHEvKh-172" value="" style="endArrow=classic;html=1;rounded=0;exitX=-0.011;exitY=0.445;exitDx=0;exitDy=0;exitPerimeter=0;" parent="1" source="-IlWu7yrMwcjvubHEvKh-137" edge="1">
          <mxGeometry width="50" height="50" relative="1" as="geometry">
            <mxPoint x="2105" y="547.5" as="sourcePoint" />
            <mxPoint x="1975" y="645" as="targetPoint" />
            <Array as="points">
              <mxPoint x="2075" y="575" />
              <mxPoint x="2075" y="635" />
              <mxPoint x="2065" y="645" />
            </Array>
          </mxGeometry>
        </mxCell>
        <mxCell id="-IlWu7yrMwcjvubHEvKh-173" value="" style="endArrow=classic;html=1;rounded=0;exitX=-0.01;exitY=0.335;exitDx=0;exitDy=0;exitPerimeter=0;" parent="1" source="-IlWu7yrMwcjvubHEvKh-137" edge="1">
          <mxGeometry width="50" height="50" relative="1" as="geometry">
            <mxPoint x="2025" y="536.3399999999999" as="sourcePoint" />
            <mxPoint x="1975" y="625" as="targetPoint" />
            <Array as="points">
              <mxPoint x="2065" y="565" />
              <mxPoint x="2065" y="615" />
              <mxPoint x="2055" y="625" />
            </Array>
          </mxGeometry>
        </mxCell>
        <mxCell id="-IlWu7yrMwcjvubHEvKh-174" value="CMIA2" style="text;whiteSpace=wrap;" parent="1" vertex="1">
          <mxGeometry x="2005" y="605" width="70" height="40" as="geometry" />
        </mxCell>
        <mxCell id="-IlWu7yrMwcjvubHEvKh-175" value="CMIA3" style="text;whiteSpace=wrap;" parent="1" vertex="1">
          <mxGeometry x="2005" y="625" width="70" height="40" as="geometry" />
        </mxCell>
        <mxCell id="-IlWu7yrMwcjvubHEvKh-176" value="CMIB2" style="text;whiteSpace=wrap;" parent="1" vertex="1">
          <mxGeometry x="2005" y="645" width="70" height="40" as="geometry" />
        </mxCell>
        <mxCell id="-IlWu7yrMwcjvubHEvKh-177" value="CMIB3" style="text;whiteSpace=wrap;" parent="1" vertex="1">
          <mxGeometry x="2005" y="665" width="70" height="40" as="geometry" />
        </mxCell>
        <mxCell id="-IlWu7yrMwcjvubHEvKh-178" value="OVI2" style="text;whiteSpace=wrap;" parent="1" vertex="1">
          <mxGeometry x="2010" y="685" width="60" height="40" as="geometry" />
        </mxCell>
        <mxCell id="-IlWu7yrMwcjvubHEvKh-179" value="OVI3" style="text;whiteSpace=wrap;" parent="1" vertex="1">
          <mxGeometry x="2010" y="705" width="60" height="40" as="geometry" />
        </mxCell>
        <mxCell id="-IlWu7yrMwcjvubHEvKh-180" value="Interrupt signals" style="text;whiteSpace=wrap;rotation=-90;" parent="1" vertex="1">
          <mxGeometry x="1910" y="635" width="120" height="40" as="geometry" />
        </mxCell>
        <mxCell id="-IlWu7yrMwcjvubHEvKh-181" value="TMRI2" style="text;whiteSpace=wrap;" parent="1" vertex="1">
          <mxGeometry x="2070" y="445" width="70" height="40" as="geometry" />
        </mxCell>
        <mxCell id="-IlWu7yrMwcjvubHEvKh-182" value="TMRI3" style="text;whiteSpace=wrap;" parent="1" vertex="1">
          <mxGeometry x="2070" y="465" width="70" height="40" as="geometry" />
        </mxCell>
        <mxCell id="-IlWu7yrMwcjvubHEvKh-183" value="" style="endArrow=classic;html=1;rounded=0;entryX=0.003;entryY=0.113;entryDx=0;entryDy=0;entryPerimeter=0;" parent="1" target="-IlWu7yrMwcjvubHEvKh-137" edge="1">
          <mxGeometry width="50" height="50" relative="1" as="geometry">
            <mxPoint x="2065" y="465" as="sourcePoint" />
            <mxPoint x="2125" y="465" as="targetPoint" />
          </mxGeometry>
        </mxCell>
        <mxCell id="-IlWu7yrMwcjvubHEvKh-184" value="" style="endArrow=classic;html=1;rounded=0;entryX=-0.002;entryY=0.225;entryDx=0;entryDy=0;entryPerimeter=0;" parent="1" target="-IlWu7yrMwcjvubHEvKh-137" edge="1">
          <mxGeometry width="50" height="50" relative="1" as="geometry">
            <mxPoint x="2065" y="485" as="sourcePoint" />
            <mxPoint x="2000" y="505" as="targetPoint" />
          </mxGeometry>
        </mxCell>
        <mxCell id="-IlWu7yrMwcjvubHEvKh-185" value="TMO2" style="text;whiteSpace=wrap;" parent="1" vertex="1">
          <mxGeometry x="2090" y="365" width="70" height="40" as="geometry" />
        </mxCell>
        <mxCell id="-IlWu7yrMwcjvubHEvKh-186" value="TMO3" style="text;whiteSpace=wrap;" parent="1" vertex="1">
          <mxGeometry x="2090" y="385" width="70" height="40" as="geometry" />
        </mxCell>
        <mxCell id="-IlWu7yrMwcjvubHEvKh-187" value="" style="endArrow=classic;html=1;rounded=0;exitX=0.424;exitY=0;exitDx=0;exitDy=0;exitPerimeter=0;" parent="1" source="-IlWu7yrMwcjvubHEvKh-137" edge="1">
          <mxGeometry width="50" height="50" relative="1" as="geometry">
            <mxPoint x="2070" y="435" as="sourcePoint" />
            <mxPoint x="2065" y="385" as="targetPoint" />
            <Array as="points">
              <mxPoint x="2195" y="415" />
              <mxPoint x="2165" y="385" />
            </Array>
          </mxGeometry>
        </mxCell>
        <mxCell id="-IlWu7yrMwcjvubHEvKh-188" value="" style="endArrow=classic;html=1;rounded=0;exitX=0.304;exitY=-0.015;exitDx=0;exitDy=0;exitPerimeter=0;" parent="1" source="-IlWu7yrMwcjvubHEvKh-137" edge="1">
          <mxGeometry width="50" height="50" relative="1" as="geometry">
            <mxPoint x="2020" y="445" as="sourcePoint" />
            <mxPoint x="2065" y="405" as="targetPoint" />
            <Array as="points">
              <mxPoint x="2175" y="425" />
              <mxPoint x="2155" y="405" />
            </Array>
          </mxGeometry>
        </mxCell>
        <mxCell id="-IlWu7yrMwcjvubHEvKh-189" value="" style="endArrow=classic;html=1;rounded=0;entryX=0.25;entryY=0;entryDx=0;entryDy=0;" parent="1" target="-IlWu7yrMwcjvubHEvKh-136" edge="1">
          <mxGeometry width="50" height="50" relative="1" as="geometry">
            <mxPoint x="2135" y="225" as="sourcePoint" />
            <mxPoint x="1955" y="155" as="targetPoint" />
            <Array as="points">
              <mxPoint x="2195" y="225" />
              <mxPoint x="2205" y="235" />
            </Array>
          </mxGeometry>
        </mxCell>
        <mxCell id="-IlWu7yrMwcjvubHEvKh-190" value="" style="endArrow=classic;html=1;rounded=0;entryX=0.5;entryY=0;entryDx=0;entryDy=0;targetPerimeterSpacing=1;" parent="1" target="-IlWu7yrMwcjvubHEvKh-136" edge="1">
          <mxGeometry width="50" height="50" relative="1" as="geometry">
            <mxPoint x="2135" y="185" as="sourcePoint" />
            <mxPoint x="2070" y="185" as="targetPoint" />
            <Array as="points">
              <mxPoint x="2215" y="185" />
              <mxPoint x="2245" y="215" />
            </Array>
          </mxGeometry>
        </mxCell>
        <mxCell id="-IlWu7yrMwcjvubHEvKh-191" value="" style="endArrow=classic;html=1;rounded=0;entryX=0.75;entryY=0;entryDx=0;entryDy=0;" parent="1" target="-IlWu7yrMwcjvubHEvKh-136" edge="1">
          <mxGeometry width="50" height="50" relative="1" as="geometry">
            <mxPoint x="2135" y="145" as="sourcePoint" />
            <mxPoint x="2345" y="185" as="targetPoint" />
            <Array as="points">
              <mxPoint x="2235" y="145" />
              <mxPoint x="2285" y="195" />
            </Array>
          </mxGeometry>
        </mxCell>
        <mxCell id="-IlWu7yrMwcjvubHEvKh-192" value="" style="endArrow=classic;html=1;rounded=0;entryX=0.376;entryY=-0.005;entryDx=0;entryDy=0;entryPerimeter=0;" parent="1" target="-IlWu7yrMwcjvubHEvKh-136" edge="1">
          <mxGeometry width="50" height="50" relative="1" as="geometry">
            <mxPoint x="2135" y="205" as="sourcePoint" />
            <mxPoint x="2065" y="265" as="targetPoint" />
            <Array as="points">
              <mxPoint x="2205" y="205" />
              <mxPoint x="2225" y="225" />
            </Array>
          </mxGeometry>
        </mxCell>
        <mxCell id="-IlWu7yrMwcjvubHEvKh-193" value="" style="endArrow=classic;html=1;rounded=0;entryX=0.63;entryY=-0.009;entryDx=0;entryDy=0;entryPerimeter=0;" parent="1" target="-IlWu7yrMwcjvubHEvKh-136" edge="1">
          <mxGeometry width="50" height="50" relative="1" as="geometry">
            <mxPoint x="2135" y="165" as="sourcePoint" />
            <mxPoint x="2235" y="175" as="targetPoint" />
            <Array as="points">
              <mxPoint x="2225" y="165" />
              <mxPoint x="2265" y="205" />
            </Array>
          </mxGeometry>
        </mxCell>
        <mxCell id="-IlWu7yrMwcjvubHEvKh-194" value="" style="endArrow=classic;html=1;rounded=0;entryX=0.879;entryY=-0.005;entryDx=0;entryDy=0;entryPerimeter=0;" parent="1" target="-IlWu7yrMwcjvubHEvKh-136" edge="1">
          <mxGeometry width="50" height="50" relative="1" as="geometry">
            <mxPoint x="2135" y="125" as="sourcePoint" />
            <mxPoint x="2045" y="165" as="targetPoint" />
            <Array as="points">
              <mxPoint x="2245" y="125" />
              <mxPoint x="2305" y="185" />
            </Array>
          </mxGeometry>
        </mxCell>
        <mxCell id="-IlWu7yrMwcjvubHEvKh-195" value="TMCI2" style="text;whiteSpace=wrap;" parent="1" vertex="1">
          <mxGeometry x="2105" y="265" width="70" height="40" as="geometry" />
        </mxCell>
        <mxCell id="-IlWu7yrMwcjvubHEvKh-196" value="" style="endArrow=classic;html=1;rounded=0;entryX=-0.007;entryY=0.377;entryDx=0;entryDy=0;entryPerimeter=0;" parent="1" target="-IlWu7yrMwcjvubHEvKh-136" edge="1">
          <mxGeometry width="50" height="50" relative="1" as="geometry">
            <mxPoint x="2095" y="285" as="sourcePoint" />
            <mxPoint x="2135" y="265" as="targetPoint" />
          </mxGeometry>
        </mxCell>
        <mxCell id="-IlWu7yrMwcjvubHEvKh-197" value="" style="endArrow=classic;html=1;rounded=0;entryX=0;entryY=0.75;entryDx=0;entryDy=0;" parent="1" target="-IlWu7yrMwcjvubHEvKh-136" edge="1">
          <mxGeometry width="50" height="50" relative="1" as="geometry">
            <mxPoint x="2095" y="315" as="sourcePoint" />
            <mxPoint x="2105" y="295" as="targetPoint" />
          </mxGeometry>
        </mxCell>
        <mxCell id="-IlWu7yrMwcjvubHEvKh-198" value="TMCI3" style="text;whiteSpace=wrap;" parent="1" vertex="1">
          <mxGeometry x="2105" y="295" width="70" height="40" as="geometry" />
        </mxCell>
        <mxCell id="-IlWu7yrMwcjvubHEvKh-199" value="" style="endArrow=classic;html=1;rounded=0;exitX=0.75;exitY=0;exitDx=0;exitDy=0;entryX=0.527;entryY=1.005;entryDx=0;entryDy=0;entryPerimeter=0;" parent="1" source="-IlWu7yrMwcjvubHEvKh-137" target="-IlWu7yrMwcjvubHEvKh-136" edge="1">
          <mxGeometry width="50" height="50" relative="1" as="geometry">
            <mxPoint x="2225" y="415" as="sourcePoint" />
            <mxPoint x="2275" y="365" as="targetPoint" />
          </mxGeometry>
        </mxCell>
        <mxCell id="-IlWu7yrMwcjvubHEvKh-202" value="External clocks" style="text;html=1;align=center;verticalAlign=middle;resizable=0;points=[];autosize=1;strokeColor=none;fillColor=none;rotation=-90;" parent="1" vertex="1">
          <mxGeometry x="2030" y="280" width="100" height="30" as="geometry" />
        </mxCell>
        <mxCell id="-IlWu7yrMwcjvubHEvKh-204" value="clock_select_2" style="text;html=1;align=center;verticalAlign=middle;resizable=0;points=[];autosize=1;strokeColor=none;fillColor=none;rotation=-90;" parent="1" vertex="1">
          <mxGeometry x="2190" y="375" width="100" height="30" as="geometry" />
        </mxCell>
        <mxCell id="-IlWu7yrMwcjvubHEvKh-205" value="" style="shape=link;endArrow=classic;startArrow=classic;html=1;rounded=0;entryX=0;entryY=0.5;entryDx=0;entryDy=0;exitX=1;exitY=0.5;exitDx=0;exitDy=0;" parent="1" source="-IlWu7yrMwcjvubHEvKh-144" target="-IlWu7yrMwcjvubHEvKh-145" edge="1">
          <mxGeometry width="100" height="100" relative="1" as="geometry">
            <mxPoint x="2505" y="585" as="sourcePoint" />
            <mxPoint x="2605" y="485" as="targetPoint" />
          </mxGeometry>
        </mxCell>
        <mxCell id="-IlWu7yrMwcjvubHEvKh-206" value="" style="endArrow=none;html=1;rounded=0;" parent="1" edge="1">
          <mxGeometry width="50" height="50" relative="1" as="geometry">
            <mxPoint x="2645" y="545" as="sourcePoint" />
            <mxPoint x="2665" y="525" as="targetPoint" />
          </mxGeometry>
        </mxCell>
        <mxCell id="-IlWu7yrMwcjvubHEvKh-207" value="16" style="text;html=1;align=center;verticalAlign=middle;resizable=0;points=[];autosize=1;strokeColor=none;fillColor=none;" parent="1" vertex="1">
          <mxGeometry x="2635" y="505" width="40" height="30" as="geometry" />
        </mxCell>
        <mxCell id="-IlWu7yrMwcjvubHEvKh-208" value="" style="shape=link;endArrow=classic;startArrow=classic;html=1;rounded=0;entryX=0;entryY=0.5;entryDx=0;entryDy=0;exitX=1;exitY=0.5;exitDx=0;exitDy=0;" parent="1" source="-IlWu7yrMwcjvubHEvKh-142" target="-IlWu7yrMwcjvubHEvKh-143" edge="1">
          <mxGeometry width="100" height="100" relative="1" as="geometry">
            <mxPoint x="2625" y="365" as="sourcePoint" />
            <mxPoint x="2695" y="365" as="targetPoint" />
          </mxGeometry>
        </mxCell>
        <mxCell id="-IlWu7yrMwcjvubHEvKh-209" value="" style="endArrow=none;html=1;rounded=0;" parent="1" edge="1">
          <mxGeometry width="50" height="50" relative="1" as="geometry">
            <mxPoint x="2645" y="375" as="sourcePoint" />
            <mxPoint x="2665" y="355" as="targetPoint" />
          </mxGeometry>
        </mxCell>
        <mxCell id="-IlWu7yrMwcjvubHEvKh-210" value="16" style="text;html=1;align=center;verticalAlign=middle;resizable=0;points=[];autosize=1;strokeColor=none;fillColor=none;" parent="1" vertex="1">
          <mxGeometry x="2635" y="335" width="40" height="30" as="geometry" />
        </mxCell>
        <mxCell id="-IlWu7yrMwcjvubHEvKh-211" value="" style="shape=link;endArrow=classic;startArrow=classic;html=1;rounded=0;entryX=0;entryY=0.5;entryDx=0;entryDy=0;exitX=1;exitY=0.5;exitDx=0;exitDy=0;" parent="1" source="-IlWu7yrMwcjvubHEvKh-146" target="-IlWu7yrMwcjvubHEvKh-147" edge="1">
          <mxGeometry width="100" height="100" relative="1" as="geometry">
            <mxPoint x="2615" y="705" as="sourcePoint" />
            <mxPoint x="2695" y="705" as="targetPoint" />
          </mxGeometry>
        </mxCell>
        <mxCell id="-IlWu7yrMwcjvubHEvKh-212" value="" style="endArrow=none;html=1;rounded=0;" parent="1" edge="1">
          <mxGeometry width="50" height="50" relative="1" as="geometry">
            <mxPoint x="2645" y="725" as="sourcePoint" />
            <mxPoint x="2665" y="705" as="targetPoint" />
          </mxGeometry>
        </mxCell>
        <mxCell id="-IlWu7yrMwcjvubHEvKh-213" value="16" style="text;html=1;align=center;verticalAlign=middle;resizable=0;points=[];autosize=1;strokeColor=none;fillColor=none;" parent="1" vertex="1">
          <mxGeometry x="2635" y="685" width="40" height="30" as="geometry" />
        </mxCell>
        <mxCell id="-IlWu7yrMwcjvubHEvKh-214" value="" style="endArrow=classic;html=1;rounded=0;entryX=0;entryY=0.75;entryDx=0;entryDy=0;exitX=1.005;exitY=0.558;exitDx=0;exitDy=0;exitPerimeter=0;" parent="1" source="-IlWu7yrMwcjvubHEvKh-137" target="-IlWu7yrMwcjvubHEvKh-144" edge="1">
          <mxGeometry width="50" height="50" relative="1" as="geometry">
            <mxPoint x="2295" y="545" as="sourcePoint" />
            <mxPoint x="2365" y="535" as="targetPoint" />
          </mxGeometry>
        </mxCell>
        <mxCell id="-IlWu7yrMwcjvubHEvKh-215" value="" style="endArrow=classic;html=1;rounded=0;exitX=0;exitY=0.25;exitDx=0;exitDy=0;entryX=1.009;entryY=0.442;entryDx=0;entryDy=0;entryPerimeter=0;" parent="1" source="-IlWu7yrMwcjvubHEvKh-144" target="-IlWu7yrMwcjvubHEvKh-137" edge="1">
          <mxGeometry width="50" height="50" relative="1" as="geometry">
            <mxPoint x="2415" y="525" as="sourcePoint" />
            <mxPoint x="2415" y="475" as="targetPoint" />
          </mxGeometry>
        </mxCell>
        <mxCell id="-IlWu7yrMwcjvubHEvKh-216" value="Overflow 2" style="text;whiteSpace=wrap;" parent="1" vertex="1">
          <mxGeometry x="2350" y="505" width="90" height="40" as="geometry" />
        </mxCell>
        <mxCell id="-IlWu7yrMwcjvubHEvKh-217" value="Counter clear 2" style="text;whiteSpace=wrap;" parent="1" vertex="1">
          <mxGeometry x="2335" y="525" width="120" height="40" as="geometry" />
        </mxCell>
        <mxCell id="-IlWu7yrMwcjvubHEvKh-218" value="" style="endArrow=classic;html=1;rounded=0;exitX=0;exitY=0.25;exitDx=0;exitDy=0;entryX=1.006;entryY=0.332;entryDx=0;entryDy=0;entryPerimeter=0;" parent="1" source="-IlWu7yrMwcjvubHEvKh-145" target="-IlWu7yrMwcjvubHEvKh-137" edge="1">
          <mxGeometry width="50" height="50" relative="1" as="geometry">
            <mxPoint x="2375" y="485" as="sourcePoint" />
            <mxPoint x="2425" y="435" as="targetPoint" />
            <Array as="points">
              <mxPoint x="2675" y="505" />
            </Array>
          </mxGeometry>
        </mxCell>
        <mxCell id="-IlWu7yrMwcjvubHEvKh-219" value="" style="endArrow=classic;html=1;rounded=0;entryX=0;entryY=0.75;entryDx=0;entryDy=0;exitX=1;exitY=0.669;exitDx=0;exitDy=0;exitPerimeter=0;" parent="1" source="-IlWu7yrMwcjvubHEvKh-137" target="-IlWu7yrMwcjvubHEvKh-145" edge="1">
          <mxGeometry width="50" height="50" relative="1" as="geometry">
            <mxPoint x="2315" y="565" as="sourcePoint" />
            <mxPoint x="2435" y="555" as="targetPoint" />
            <Array as="points">
              <mxPoint x="2675" y="565" />
            </Array>
          </mxGeometry>
        </mxCell>
        <mxCell id="-IlWu7yrMwcjvubHEvKh-220" value="Overflow 3" style="text;whiteSpace=wrap;html=1;" parent="1" vertex="1">
          <mxGeometry x="2350" y="485" width="90" height="40" as="geometry" />
        </mxCell>
        <mxCell id="-IlWu7yrMwcjvubHEvKh-221" value="Counter clear 3" style="text;whiteSpace=wrap;html=1;" parent="1" vertex="1">
          <mxGeometry x="2335" y="545" width="120" height="40" as="geometry" />
        </mxCell>
        <mxCell id="-IlWu7yrMwcjvubHEvKh-222" value="" style="endArrow=classic;html=1;rounded=0;entryX=1.004;entryY=0.777;entryDx=0;entryDy=0;entryPerimeter=0;exitX=0;exitY=0.5;exitDx=0;exitDy=0;" parent="1" source="-IlWu7yrMwcjvubHEvKh-141" target="-IlWu7yrMwcjvubHEvKh-137" edge="1">
          <mxGeometry width="50" height="50" relative="1" as="geometry">
            <mxPoint x="2305" y="635" as="sourcePoint" />
            <mxPoint x="2355" y="585" as="targetPoint" />
            <Array as="points">
              <mxPoint x="2665" y="625" />
              <mxPoint x="2645" y="585" />
            </Array>
          </mxGeometry>
        </mxCell>
        <mxCell id="-IlWu7yrMwcjvubHEvKh-223" value="" style="endArrow=classic;html=1;rounded=0;exitX=0;exitY=0.5;exitDx=0;exitDy=0;entryX=1;entryY=0.89;entryDx=0;entryDy=0;entryPerimeter=0;" parent="1" source="-IlWu7yrMwcjvubHEvKh-140" target="-IlWu7yrMwcjvubHEvKh-137" edge="1">
          <mxGeometry width="50" height="50" relative="1" as="geometry">
            <mxPoint x="2335" y="645" as="sourcePoint" />
            <mxPoint x="2295" y="605" as="targetPoint" />
            <Array as="points">
              <mxPoint x="2445" y="635" />
              <mxPoint x="2435" y="605" />
            </Array>
          </mxGeometry>
        </mxCell>
        <mxCell id="-IlWu7yrMwcjvubHEvKh-224" value="Compare match B3" style="text;whiteSpace=wrap;" parent="1" vertex="1">
          <mxGeometry x="2325" y="565" width="140" height="40" as="geometry" />
        </mxCell>
        <mxCell id="-IlWu7yrMwcjvubHEvKh-225" value="Compare match B2" style="text;whiteSpace=wrap;" parent="1" vertex="1">
          <mxGeometry x="2325" y="585" width="140" height="40" as="geometry" />
        </mxCell>
        <mxCell id="-IlWu7yrMwcjvubHEvKh-226" value="" style="endArrow=classic;html=1;rounded=0;exitX=0;exitY=0.5;exitDx=0;exitDy=0;entryX=1.008;entryY=0.221;entryDx=0;entryDy=0;entryPerimeter=0;" parent="1" source="-IlWu7yrMwcjvubHEvKh-139" target="-IlWu7yrMwcjvubHEvKh-137" edge="1">
          <mxGeometry width="50" height="50" relative="1" as="geometry">
            <mxPoint x="2385" y="485" as="sourcePoint" />
            <mxPoint x="2325" y="485" as="targetPoint" />
            <Array as="points">
              <mxPoint x="2665" y="435" />
              <mxPoint x="2645" y="485" />
            </Array>
          </mxGeometry>
        </mxCell>
        <mxCell id="-IlWu7yrMwcjvubHEvKh-227" value="Compare match A3" style="text;whiteSpace=wrap;" parent="1" vertex="1">
          <mxGeometry x="2325" y="465" width="140" height="40" as="geometry" />
        </mxCell>
        <mxCell id="-IlWu7yrMwcjvubHEvKh-228" value="" style="endArrow=classic;html=1;rounded=0;exitX=0;exitY=0.5;exitDx=0;exitDy=0;entryX=1.007;entryY=0.114;entryDx=0;entryDy=0;entryPerimeter=0;" parent="1" source="-IlWu7yrMwcjvubHEvKh-138" target="-IlWu7yrMwcjvubHEvKh-137" edge="1">
          <mxGeometry width="50" height="50" relative="1" as="geometry">
            <mxPoint x="2415" y="385" as="sourcePoint" />
            <mxPoint x="2295" y="465" as="targetPoint" />
            <Array as="points">
              <mxPoint x="2445" y="435" />
              <mxPoint x="2435" y="465" />
            </Array>
          </mxGeometry>
        </mxCell>
        <mxCell id="-IlWu7yrMwcjvubHEvKh-229" value="Compare match A2" style="text;whiteSpace=wrap;" parent="1" vertex="1">
          <mxGeometry x="2325" y="445" width="140" height="40" as="geometry" />
        </mxCell>
        <mxCell id="-IlWu7yrMwcjvubHEvKh-230" value="P/2" style="text;whiteSpace=wrap;" parent="1" vertex="1">
          <mxGeometry x="2155" y="205" width="60" height="40" as="geometry" />
        </mxCell>
        <mxCell id="-IlWu7yrMwcjvubHEvKh-231" value="P/8" style="text;whiteSpace=wrap;" parent="1" vertex="1">
          <mxGeometry x="2155" y="185" width="60" height="40" as="geometry" />
        </mxCell>
        <mxCell id="-IlWu7yrMwcjvubHEvKh-232" value="P/32" style="text;whiteSpace=wrap;" parent="1" vertex="1">
          <mxGeometry x="2155" y="165" width="60" height="40" as="geometry" />
        </mxCell>
        <mxCell id="-IlWu7yrMwcjvubHEvKh-233" value="P/64" style="text;whiteSpace=wrap;" parent="1" vertex="1">
          <mxGeometry x="2155" y="145" width="60" height="40" as="geometry" />
        </mxCell>
        <mxCell id="-IlWu7yrMwcjvubHEvKh-234" value="P/1024" style="text;whiteSpace=wrap;" parent="1" vertex="1">
          <mxGeometry x="2155" y="125" width="60" height="40" as="geometry" />
        </mxCell>
        <mxCell id="-IlWu7yrMwcjvubHEvKh-235" value="P/8192" style="text;whiteSpace=wrap;" parent="1" vertex="1">
          <mxGeometry x="2155" y="105" width="60" height="40" as="geometry" />
        </mxCell>
        <mxCell id="-IlWu7yrMwcjvubHEvKh-239" value="&lt;font style=&quot;font-size: 50px;&quot;&gt;&lt;b&gt;&lt;font&gt;UNIT 0&lt;/font&gt;&lt;/b&gt;&lt;/font&gt;" style="text;html=1;align=center;verticalAlign=middle;whiteSpace=wrap;rounded=0;" parent="1" vertex="1">
          <mxGeometry x="1370" y="90" width="355" height="119" as="geometry" />
        </mxCell>
        <mxCell id="-IlWu7yrMwcjvubHEvKh-240" value="&lt;font style=&quot;font-size: 50px;&quot;&gt;&lt;b&gt;&lt;font&gt;UNIT 1&lt;/font&gt;&lt;/b&gt;&lt;/font&gt;" style="text;html=1;align=center;verticalAlign=middle;whiteSpace=wrap;rounded=0;" parent="1" vertex="1">
          <mxGeometry x="2375" y="95" width="355" height="119" as="geometry" />
        </mxCell>
        <mxCell id="OIIPI0kcdlbvsyhmtKVc-1" value="" style="shape=link;endArrow=classic;startArrow=classic;html=1;rounded=0;entryX=0;entryY=0.5;entryDx=0;entryDy=0;exitX=1;exitY=0.5;exitDx=0;exitDy=0;" parent="1" source="-IlWu7yrMwcjvubHEvKh-34" target="-IlWu7yrMwcjvubHEvKh-33" edge="1">
          <mxGeometry width="100" height="100" relative="1" as="geometry">
            <mxPoint x="1640" y="780" as="sourcePoint" />
            <mxPoint x="1725" y="780" as="targetPoint" />
          </mxGeometry>
        </mxCell>
        <mxCell id="OIIPI0kcdlbvsyhmtKVc-2" value="" style="endArrow=none;html=1;rounded=0;" parent="1" edge="1">
          <mxGeometry width="50" height="50" relative="1" as="geometry">
            <mxPoint x="1655" y="790" as="sourcePoint" />
            <mxPoint x="1675" y="770" as="targetPoint" />
          </mxGeometry>
        </mxCell>
        <mxCell id="OIIPI0kcdlbvsyhmtKVc-3" value="16" style="text;html=1;align=center;verticalAlign=middle;resizable=0;points=[];autosize=1;strokeColor=none;fillColor=none;" parent="1" vertex="1">
          <mxGeometry x="1645" y="750" width="40" height="30" as="geometry" />
        </mxCell>
        <mxCell id="OIIPI0kcdlbvsyhmtKVc-4" value="" style="shape=link;endArrow=classic;startArrow=classic;html=1;rounded=0;entryX=0;entryY=0.5;entryDx=0;entryDy=0;exitX=1;exitY=0.5;exitDx=0;exitDy=0;" parent="1" source="-IlWu7yrMwcjvubHEvKh-41" target="-IlWu7yrMwcjvubHEvKh-40" edge="1">
          <mxGeometry width="100" height="100" relative="1" as="geometry">
            <mxPoint x="1630" y="850" as="sourcePoint" />
            <mxPoint x="1710" y="850" as="targetPoint" />
          </mxGeometry>
        </mxCell>
        <mxCell id="OIIPI0kcdlbvsyhmtKVc-5" value="" style="endArrow=none;html=1;rounded=0;" parent="1" edge="1">
          <mxGeometry width="50" height="50" relative="1" as="geometry">
            <mxPoint x="1655" y="860" as="sourcePoint" />
            <mxPoint x="1675" y="840" as="targetPoint" />
          </mxGeometry>
        </mxCell>
        <mxCell id="OIIPI0kcdlbvsyhmtKVc-6" value="16" style="text;html=1;align=center;verticalAlign=middle;resizable=0;points=[];autosize=1;strokeColor=none;fillColor=none;" parent="1" vertex="1">
          <mxGeometry x="1645" y="820" width="40" height="30" as="geometry" />
        </mxCell>
        <mxCell id="OIIPI0kcdlbvsyhmtKVc-7" value="" style="shape=link;endArrow=classic;startArrow=classic;html=1;rounded=0;entryX=0;entryY=0.5;entryDx=0;entryDy=0;exitX=1;exitY=0.5;exitDx=0;exitDy=0;" parent="1" source="-IlWu7yrMwcjvubHEvKh-43" target="-IlWu7yrMwcjvubHEvKh-42" edge="1">
          <mxGeometry width="100" height="100" relative="1" as="geometry">
            <mxPoint x="1620" y="920" as="sourcePoint" />
            <mxPoint x="1710" y="920" as="targetPoint" />
          </mxGeometry>
        </mxCell>
        <mxCell id="OIIPI0kcdlbvsyhmtKVc-8" value="" style="endArrow=none;html=1;rounded=0;" parent="1" edge="1">
          <mxGeometry width="50" height="50" relative="1" as="geometry">
            <mxPoint x="1655" y="930" as="sourcePoint" />
            <mxPoint x="1675" y="910" as="targetPoint" />
          </mxGeometry>
        </mxCell>
        <mxCell id="OIIPI0kcdlbvsyhmtKVc-9" value="16" style="text;html=1;align=center;verticalAlign=middle;resizable=0;points=[];autosize=1;strokeColor=none;fillColor=none;" parent="1" vertex="1">
          <mxGeometry x="1645" y="890" width="40" height="30" as="geometry" />
        </mxCell>
        <mxCell id="OIIPI0kcdlbvsyhmtKVc-10" value="" style="shape=link;endArrow=classic;startArrow=classic;html=1;rounded=0;entryX=0;entryY=0.5;entryDx=0;entryDy=0;exitX=1;exitY=0.5;exitDx=0;exitDy=0;" parent="1" source="-IlWu7yrMwcjvubHEvKh-157" target="-IlWu7yrMwcjvubHEvKh-156" edge="1">
          <mxGeometry width="100" height="100" relative="1" as="geometry">
            <mxPoint x="2605" y="785" as="sourcePoint" />
            <mxPoint x="2705" y="785" as="targetPoint" />
          </mxGeometry>
        </mxCell>
        <mxCell id="OIIPI0kcdlbvsyhmtKVc-11" value="" style="endArrow=none;html=1;rounded=0;" parent="1" edge="1">
          <mxGeometry width="50" height="50" relative="1" as="geometry">
            <mxPoint x="2645" y="795" as="sourcePoint" />
            <mxPoint x="2665" y="775" as="targetPoint" />
          </mxGeometry>
        </mxCell>
        <mxCell id="OIIPI0kcdlbvsyhmtKVc-12" value="16" style="text;html=1;align=center;verticalAlign=middle;resizable=0;points=[];autosize=1;strokeColor=none;fillColor=none;" parent="1" vertex="1">
          <mxGeometry x="2635" y="755" width="40" height="30" as="geometry" />
        </mxCell>
        <mxCell id="OIIPI0kcdlbvsyhmtKVc-13" value="" style="shape=link;endArrow=classic;startArrow=classic;html=1;rounded=0;entryX=0;entryY=0.5;entryDx=0;entryDy=0;exitX=1;exitY=0.5;exitDx=0;exitDy=0;" parent="1" source="-IlWu7yrMwcjvubHEvKh-161" target="-IlWu7yrMwcjvubHEvKh-160" edge="1">
          <mxGeometry width="100" height="100" relative="1" as="geometry">
            <mxPoint x="2605" y="855" as="sourcePoint" />
            <mxPoint x="2695" y="855" as="targetPoint" />
          </mxGeometry>
        </mxCell>
        <mxCell id="OIIPI0kcdlbvsyhmtKVc-14" value="" style="endArrow=none;html=1;rounded=0;" parent="1" edge="1">
          <mxGeometry width="50" height="50" relative="1" as="geometry">
            <mxPoint x="2645" y="865" as="sourcePoint" />
            <mxPoint x="2665" y="845" as="targetPoint" />
          </mxGeometry>
        </mxCell>
        <mxCell id="OIIPI0kcdlbvsyhmtKVc-15" value="16" style="text;html=1;align=center;verticalAlign=middle;resizable=0;points=[];autosize=1;strokeColor=none;fillColor=none;" parent="1" vertex="1">
          <mxGeometry x="2635" y="825" width="40" height="30" as="geometry" />
        </mxCell>
        <mxCell id="OIIPI0kcdlbvsyhmtKVc-16" value="" style="shape=link;endArrow=classic;startArrow=classic;html=1;rounded=0;entryX=0;entryY=0.5;entryDx=0;entryDy=0;exitX=1;exitY=0.5;exitDx=0;exitDy=0;" parent="1" source="-IlWu7yrMwcjvubHEvKh-163" target="-IlWu7yrMwcjvubHEvKh-162" edge="1">
          <mxGeometry width="100" height="100" relative="1" as="geometry">
            <mxPoint x="2605" y="925" as="sourcePoint" />
            <mxPoint x="2695" y="925" as="targetPoint" />
          </mxGeometry>
        </mxCell>
        <mxCell id="OIIPI0kcdlbvsyhmtKVc-17" value="" style="endArrow=none;html=1;rounded=0;" parent="1" edge="1">
          <mxGeometry width="50" height="50" relative="1" as="geometry">
            <mxPoint x="2645" y="935" as="sourcePoint" />
            <mxPoint x="2665" y="915" as="targetPoint" />
          </mxGeometry>
        </mxCell>
        <mxCell id="OIIPI0kcdlbvsyhmtKVc-18" value="16" style="text;html=1;align=center;verticalAlign=middle;resizable=0;points=[];autosize=1;strokeColor=none;fillColor=none;" parent="1" vertex="1">
          <mxGeometry x="2635" y="895" width="40" height="30" as="geometry" />
        </mxCell>
        <mxCell id="UerVz28K_lACcTRmBNEX-2" value="" style="endArrow=classic;html=1;rounded=0;exitX=0.545;exitY=0;exitDx=0;exitDy=0;exitPerimeter=0;" parent="1" source="-IlWu7yrMwcjvubHEvKh-2" edge="1">
          <mxGeometry width="50" height="50" relative="1" as="geometry">
            <mxPoint x="1225" y="425" as="sourcePoint" />
            <mxPoint x="1080" y="360" as="targetPoint" />
            <Array as="points">
              <mxPoint x="1225" y="395" />
              <mxPoint x="1190" y="360" />
            </Array>
          </mxGeometry>
        </mxCell>
        <mxCell id="UerVz28K_lACcTRmBNEX-4" value="" style="endArrow=classic;html=1;rounded=0;exitX=0.545;exitY=-0.012;exitDx=0;exitDy=0;exitPerimeter=0;" parent="1" source="-IlWu7yrMwcjvubHEvKh-137" edge="1">
          <mxGeometry width="50" height="50" relative="1" as="geometry">
            <mxPoint x="2217.5" y="445" as="sourcePoint" />
            <mxPoint x="2065" y="365" as="targetPoint" />
            <Array as="points">
              <mxPoint x="2215" y="405" />
              <mxPoint x="2175" y="365" />
            </Array>
          </mxGeometry>
        </mxCell>
        <mxCell id="UerVz28K_lACcTRmBNEX-7" value="ADC_REQUEST" style="text;whiteSpace=wrap;" parent="1" vertex="1">
          <mxGeometry x="2080" y="345" width="70" height="40" as="geometry" />
        </mxCell>
        <mxCell id="UerVz28K_lACcTRmBNEX-8" value="ADC_REQUEST" style="text;whiteSpace=wrap;" parent="1" vertex="1">
          <mxGeometry x="1095" y="340" width="70" height="40" as="geometry" />
        </mxCell>
        <mxCell id="FWNd61tXnvrk5jHdfVuo-11" value="CounterEdge0" style="text;whiteSpace=wrap;" parent="1" vertex="1">
          <mxGeometry x="1345" y="300" width="70" height="40" as="geometry" />
        </mxCell>
        <mxCell id="FWNd61tXnvrk5jHdfVuo-12" value="" style="endArrow=classic;html=1;rounded=0;exitX=1.004;exitY=0.875;exitDx=0;exitDy=0;exitPerimeter=0;entryX=1;entryY=0.25;entryDx=0;entryDy=0;" parent="1" source="-IlWu7yrMwcjvubHEvKh-1" target="-IlWu7yrMwcjvubHEvKh-9" edge="1">
          <mxGeometry width="50" height="50" relative="1" as="geometry">
            <mxPoint x="1335" y="322" as="sourcePoint" />
            <mxPoint x="1615" y="480" as="targetPoint" />
            <Array as="points">
              <mxPoint x="1620" y="320" />
              <mxPoint x="1640" y="340" />
              <mxPoint x="1640" y="510" />
              <mxPoint x="1630" y="520" />
            </Array>
          </mxGeometry>
        </mxCell>
        <mxCell id="FWNd61tXnvrk5jHdfVuo-16" value="" style="endArrow=classic;html=1;rounded=0;entryX=1;entryY=0.25;entryDx=0;entryDy=0;exitX=1.001;exitY=0.373;exitDx=0;exitDy=0;exitPerimeter=0;" parent="1" edge="1">
          <mxGeometry width="50" height="50" relative="1" as="geometry">
            <mxPoint x="1335.1599999999999" y="279.99999999999994" as="sourcePoint" />
            <mxPoint x="1845" y="520.16" as="targetPoint" />
            <Array as="points">
              <mxPoint x="1860" y="280" />
              <mxPoint x="1880" y="300" />
              <mxPoint x="1880" y="510" />
              <mxPoint x="1870" y="520.16" />
            </Array>
          </mxGeometry>
        </mxCell>
        <mxCell id="FWNd61tXnvrk5jHdfVuo-17" value="CounterClock0" style="text;whiteSpace=wrap;" parent="1" vertex="1">
          <mxGeometry x="1345" y="280" width="70" height="40" as="geometry" />
        </mxCell>
        <mxCell id="FWNd61tXnvrk5jHdfVuo-20" value="CounterEdge1" style="text;whiteSpace=wrap;" parent="1" vertex="1">
          <mxGeometry x="1345" y="260" width="70" height="40" as="geometry" />
        </mxCell>
        <mxCell id="FWNd61tXnvrk5jHdfVuo-21" value="CounterClock1" style="text;whiteSpace=wrap;" parent="1" vertex="1">
          <mxGeometry x="1345" y="240" width="70" height="40" as="geometry" />
        </mxCell>
        <mxCell id="FWNd61tXnvrk5jHdfVuo-89" value="" style="endArrow=classic;html=1;rounded=0;exitX=1.009;exitY=0.631;exitDx=0;exitDy=0;entryX=1;entryY=0.75;entryDx=0;entryDy=0;exitPerimeter=0;" parent="1" edge="1">
          <mxGeometry width="50" height="50" relative="1" as="geometry">
            <mxPoint x="2325.84" y="305" as="sourcePoint" />
            <mxPoint x="2594.84" y="545" as="targetPoint" />
            <Array as="points">
              <mxPoint x="2609.84" y="305" />
              <mxPoint x="2639.84" y="335" />
              <mxPoint x="2639.84" y="525" />
              <mxPoint x="2619.84" y="545" />
            </Array>
          </mxGeometry>
        </mxCell>
        <mxCell id="FWNd61tXnvrk5jHdfVuo-90" value="" style="endArrow=classic;html=1;rounded=0;exitX=1.005;exitY=0.127;exitDx=0;exitDy=0;entryX=1;entryY=0.75;entryDx=0;entryDy=0;exitPerimeter=0;" parent="1" edge="1">
          <mxGeometry width="50" height="50" relative="1" as="geometry">
            <mxPoint x="2325" y="265" as="sourcePoint" />
            <mxPoint x="2834" y="545" as="targetPoint" />
            <Array as="points">
              <mxPoint x="2865" y="265" />
              <mxPoint x="2894.16" y="295" />
              <mxPoint x="2894.16" y="525" />
              <mxPoint x="2874.16" y="545" />
            </Array>
          </mxGeometry>
        </mxCell>
        <mxCell id="FWNd61tXnvrk5jHdfVuo-101" value="CounterEdge0" style="text;whiteSpace=wrap;" parent="1" vertex="1">
          <mxGeometry x="2334.84" y="305" width="70" height="40" as="geometry" />
        </mxCell>
        <mxCell id="FWNd61tXnvrk5jHdfVuo-102" value="" style="endArrow=classic;html=1;rounded=0;entryX=1;entryY=0.25;entryDx=0;entryDy=0;" parent="1" edge="1">
          <mxGeometry width="50" height="50" relative="1" as="geometry">
            <mxPoint x="2325" y="325" as="sourcePoint" />
            <mxPoint x="2594.84" y="525" as="targetPoint" />
            <Array as="points">
              <mxPoint x="2609.84" y="325" />
              <mxPoint x="2629.84" y="345" />
              <mxPoint x="2629.84" y="515" />
              <mxPoint x="2619.84" y="525" />
            </Array>
          </mxGeometry>
        </mxCell>
        <mxCell id="FWNd61tXnvrk5jHdfVuo-103" value="" style="endArrow=classic;html=1;rounded=0;entryX=1;entryY=0.25;entryDx=0;entryDy=0;exitX=1.001;exitY=0.373;exitDx=0;exitDy=0;exitPerimeter=0;" parent="1" edge="1">
          <mxGeometry width="50" height="50" relative="1" as="geometry">
            <mxPoint x="2325" y="284.99999999999994" as="sourcePoint" />
            <mxPoint x="2834.84" y="525.16" as="targetPoint" />
            <Array as="points">
              <mxPoint x="2855" y="285" />
              <mxPoint x="2875" y="305" />
              <mxPoint x="2875" y="515" />
              <mxPoint x="2865" y="525" />
            </Array>
          </mxGeometry>
        </mxCell>
        <mxCell id="FWNd61tXnvrk5jHdfVuo-104" value="CounterClock0" style="text;whiteSpace=wrap;" parent="1" vertex="1">
          <mxGeometry x="2334.84" y="285" width="70" height="40" as="geometry" />
        </mxCell>
        <mxCell id="FWNd61tXnvrk5jHdfVuo-105" value="CounterEdge1" style="text;whiteSpace=wrap;" parent="1" vertex="1">
          <mxGeometry x="2334.84" y="265" width="70" height="40" as="geometry" />
        </mxCell>
        <mxCell id="FWNd61tXnvrk5jHdfVuo-106" value="CounterClock1" style="text;whiteSpace=wrap;" parent="1" vertex="1">
          <mxGeometry x="2334.84" y="245" width="70" height="40" as="geometry" />
        </mxCell>
        <mxCell id="FWNd61tXnvrk5jHdfVuo-107" value="&lt;font style=&quot;font-size: 20px;&quot;&gt;&lt;span&gt;ClockDivider&lt;/span&gt;&lt;/font&gt;" style="rounded=1;whiteSpace=wrap;html=1;fontStyle=1;strokeWidth=3;" parent="1" vertex="1">
          <mxGeometry x="1015" y="100" width="135" height="140" as="geometry" />
        </mxCell>
        <mxCell id="FWNd61tXnvrk5jHdfVuo-109" value="CLK" style="text;html=1;align=center;verticalAlign=middle;resizable=0;points=[];autosize=1;strokeColor=none;fillColor=none;rotation=0;" parent="1" vertex="1">
          <mxGeometry x="1945" y="150" width="50" height="30" as="geometry" />
        </mxCell>
        <mxCell id="FWNd61tXnvrk5jHdfVuo-110" value="&lt;font style=&quot;font-size: 20px;&quot;&gt;&lt;span&gt;ClockDivider&lt;/span&gt;&lt;/font&gt;" style="rounded=1;whiteSpace=wrap;html=1;fontStyle=1;strokeWidth=3;" parent="1" vertex="1">
          <mxGeometry x="2005" y="105" width="135" height="140" as="geometry" />
        </mxCell>
        <mxCell id="FWNd61tXnvrk5jHdfVuo-111" value="" style="endArrow=classic;html=1;rounded=0;entryX=0;entryY=0.5;entryDx=0;entryDy=0;" parent="1" target="FWNd61tXnvrk5jHdfVuo-110" edge="1">
          <mxGeometry width="50" height="50" relative="1" as="geometry">
            <mxPoint x="1935" y="175" as="sourcePoint" />
            <mxPoint x="1990" y="165" as="targetPoint" />
          </mxGeometry>
        </mxCell>
        <mxCell id="FWNd61tXnvrk5jHdfVuo-112" value="Internal clocks" style="text;html=1;align=center;verticalAlign=middle;resizable=0;points=[];autosize=1;strokeColor=none;fillColor=none;rotation=45;" parent="1" vertex="1">
          <mxGeometry x="1245" y="125" width="100" height="30" as="geometry" />
        </mxCell>
        <mxCell id="FWNd61tXnvrk5jHdfVuo-117" value="CLK" style="text;html=1;align=center;verticalAlign=middle;resizable=0;points=[];autosize=1;strokeColor=none;fillColor=none;rotation=0;" parent="1" vertex="1">
          <mxGeometry x="955" y="145" width="50" height="30" as="geometry" />
        </mxCell>
        <mxCell id="FWNd61tXnvrk5jHdfVuo-118" value="" style="endArrow=classic;html=1;rounded=0;entryX=0;entryY=0.5;entryDx=0;entryDy=0;" parent="1" target="FWNd61tXnvrk5jHdfVuo-107" edge="1">
          <mxGeometry width="50" height="50" relative="1" as="geometry">
            <mxPoint x="945" y="170" as="sourcePoint" />
            <mxPoint x="1010" y="170" as="targetPoint" />
          </mxGeometry>
        </mxCell>
        <mxCell id="FWNd61tXnvrk5jHdfVuo-119" value="Internal clocks" style="text;html=1;align=center;verticalAlign=middle;resizable=0;points=[];autosize=1;strokeColor=none;fillColor=none;rotation=45;" parent="1" vertex="1">
          <mxGeometry x="2235" y="130" width="100" height="30" as="geometry" />
        </mxCell>
        <mxCell id="h35pbGkSEJKitxhKxtBR-1" value="" style="endArrow=classic;html=1;rounded=0;exitX=0.727;exitY=0;exitDx=0;exitDy=0;entryX=0.5;entryY=1;entryDx=0;entryDy=0;exitPerimeter=0;" parent="1" edge="1">
          <mxGeometry width="50" height="50" relative="1" as="geometry">
            <mxPoint x="1280" y="440" as="sourcePoint" />
            <mxPoint x="1280" y="330" as="targetPoint" />
          </mxGeometry>
        </mxCell>
        <mxCell id="h35pbGkSEJKitxhKxtBR-2" value="clock_select_1" style="text;html=1;align=center;verticalAlign=middle;resizable=0;points=[];autosize=1;strokeColor=none;fillColor=none;rotation=-90;" parent="1" vertex="1">
          <mxGeometry x="1220" y="370" width="100" height="30" as="geometry" />
        </mxCell>
        <mxCell id="h35pbGkSEJKitxhKxtBR-3" value="" style="endArrow=classic;html=1;rounded=0;exitX=0.727;exitY=0;exitDx=0;exitDy=0;entryX=0.5;entryY=1;entryDx=0;entryDy=0;exitPerimeter=0;" parent="1" edge="1">
          <mxGeometry width="50" height="50" relative="1" as="geometry">
            <mxPoint x="2270" y="445" as="sourcePoint" />
            <mxPoint x="2270" y="335" as="targetPoint" />
          </mxGeometry>
        </mxCell>
        <mxCell id="h35pbGkSEJKitxhKxtBR-4" value="clock_select_3" style="text;html=1;align=center;verticalAlign=middle;resizable=0;points=[];autosize=1;strokeColor=none;fillColor=none;rotation=-90;" parent="1" vertex="1">
          <mxGeometry x="2210" y="375" width="100" height="30" as="geometry" />
        </mxCell>
      </root>
    </mxGraphModel>
  </diagram>
</mxfile>
